<svg width="90" height="78" viewBox="0 0 90 78" fill="none" xmlns="http://www.w3.org/2000/svg">
<path d="M7.55677 0.616459C7.83001 0.614964 8.10325 0.613469 8.38478 0.611929C8.68547 0.611783 8.98616 0.611636 9.29596 0.611485C9.77454 0.609549 9.77454 0.609549 10.2628 0.607573C11.3374 0.603623 12.4119 0.601808 13.4865 0.600005C14.2547 0.597679 15.023 0.595243 15.7913 0.592706C18.1007 0.585483 20.4101 0.581174 22.7195 0.577371C23.3718 0.576278 24.0241 0.575107 24.6765 0.573909C28.7275 0.566475 32.7785 0.55998 36.8296 0.556316C37.7679 0.555453 38.7062 0.55458 39.6445 0.553692C39.8777 0.553473 40.1109 0.553253 40.3512 0.553026C44.1287 0.549299 47.9061 0.539513 51.6836 0.52724C55.5621 0.514742 59.4406 0.507802 63.3191 0.506263C65.4967 0.505258 67.6742 0.5018 69.8517 0.492094C71.9003 0.482978 73.9487 0.481369 75.9973 0.484843C76.7492 0.484908 77.5011 0.482451 78.253 0.477286C79.2796 0.470618 80.3059 0.473039 81.3326 0.477723C81.63 0.473634 81.9274 0.469545 82.2338 0.465332C84.5388 0.491238 85.9217 1.19193 87.6016 2.73717C87.7603 2.9255 87.919 3.11384 88.0826 3.30788C88.2458 3.49622 88.4091 3.68456 88.5773 3.8786C89.5616 5.2832 89.6781 6.58882 89.671 8.26531C89.6723 8.49565 89.6736 8.72598 89.675 8.9633C89.6787 9.73414 89.6783 10.5049 89.6778 11.2758C89.6795 11.8289 89.6815 12.382 89.6838 12.9351C89.689 14.4372 89.6904 15.9392 89.6907 17.4413C89.6912 18.3802 89.6924 19.319 89.694 20.2579C89.6994 23.5345 89.7018 26.8111 89.7014 30.0878C89.701 33.1399 89.7072 36.192 89.7165 39.2441C89.7242 41.8661 89.7274 44.488 89.727 47.11C89.7269 48.6753 89.7285 50.2405 89.7348 51.8058C89.7405 53.2787 89.7405 54.7515 89.7363 56.2245C89.7356 56.7639 89.737 57.3033 89.7406 57.8428C89.7731 63.0984 89.7731 63.0984 88.414 65.1661C88.3085 65.3323 88.203 65.4985 88.0943 65.6698C86.8691 67.3552 85.1027 68.0688 83.1118 68.4063C82.5788 68.4308 82.0451 68.441 81.5115 68.4397C81.1991 68.4397 80.8866 68.4397 80.5647 68.4396C80.0639 68.4374 80.0639 68.4374 79.5529 68.435C79.0362 68.4344 79.0362 68.4344 78.5092 68.4338C77.4107 68.4321 76.3123 68.4284 75.2139 68.4247C74.4684 68.4232 73.723 68.4219 72.9776 68.4206C71.1517 68.4174 69.3259 68.4125 67.5 68.4063C67.5031 68.6441 67.5062 68.882 67.5093 69.127C67.5216 70.2 67.5292 71.273 67.5368 72.346C67.5417 72.7204 67.5467 73.0948 67.5518 73.4806C67.5537 73.8375 67.5556 74.1944 67.5575 74.5622C67.5606 74.8923 67.5637 75.2224 67.5669 75.5625C67.5 76.3595 67.5 76.3595 66.9109 76.9486C65.9961 77.1315 65.9961 77.1315 64.8489 76.9486C63.9236 76.2712 63.1735 75.4538 62.4004 74.6105C61.9847 74.1716 61.5686 73.7332 61.1519 73.2953C60.9707 73.0994 60.7895 72.9035 60.6027 72.7017C60.1566 72.2072 60.1566 72.2072 59.5468 71.941C59.5468 72.2326 59.5468 72.5243 59.5468 72.8247C59.1038 73.2896 59.1038 73.2896 58.4974 73.782C57.6377 74.492 56.8828 75.2152 56.1409 76.0465C55.3528 76.8527 55.1905 76.9394 54.0053 77.1143C53.0664 76.9486 53.0664 76.9486 52.4773 76.3595C52.4104 75.5625 52.4104 75.5625 52.4198 74.5622C52.4226 74.0268 52.4226 74.0268 52.4255 73.4806C52.4329 72.919 52.4329 72.919 52.4405 72.346C52.4431 71.9694 52.4458 71.5927 52.4485 71.2046C52.4555 70.2718 52.4652 69.3391 52.4773 68.4063C52.1326 68.4075 52.1326 68.4075 51.7809 68.4087C46.1826 68.4283 40.5844 68.4429 34.9862 68.4521C32.2789 68.4566 29.5716 68.4628 26.8644 68.4729C24.504 68.4818 22.1438 68.4874 19.7834 68.4894C18.5342 68.4906 17.2851 68.4933 16.0359 68.4997C14.8587 68.5057 13.6816 68.5075 12.5044 68.5062C12.0737 68.5065 11.643 68.5082 11.2124 68.5116C8.11959 68.5349 5.46352 68.3675 2.99075 66.3443C1.3575 64.4842 0.839409 62.6523 0.850032 60.1844C0.848697 59.955 0.847363 59.7256 0.845988 59.4893C0.84227 58.7235 0.84274 57.9577 0.843228 57.1918C0.841464 56.6416 0.839459 56.0913 0.837231 55.541C0.832031 54.0481 0.830647 52.5552 0.830271 51.0623C0.829852 50.129 0.828593 49.1957 0.827032 48.2624C0.821583 45.0049 0.819175 41.7473 0.819639 38.4898C0.819993 35.4559 0.813778 32.4221 0.804473 29.3882C0.796763 26.7812 0.79361 24.1742 0.793986 21.5673C0.794136 20.0112 0.792467 18.4552 0.786223 16.8992C0.780508 15.4352 0.78048 13.9713 0.784759 12.5073C0.785374 11.9712 0.783992 11.4351 0.780424 10.899C0.745053 5.21535 0.745053 5.21535 2.80664 2.77399C4.3214 1.51169 5.5541 0.622274 7.55677 0.616459ZM5.23679 5.20413C5.07883 5.45322 4.92087 5.70231 4.75812 5.95895C4.65263 6.12362 4.54713 6.2883 4.43844 6.45796C4.06069 7.41022 4.08678 8.32493 4.09221 9.33382C4.09108 9.5559 4.08995 9.77799 4.08879 10.0068C4.08575 10.7514 4.08692 11.496 4.08809 12.2406C4.08681 12.7743 4.08529 13.308 4.08353 13.8418C4.07958 15.2921 4.07942 16.7424 4.08016 18.1927C4.08048 19.4035 4.07904 20.6142 4.07763 21.8249C4.07436 24.6817 4.07423 27.5384 4.07601 30.3952C4.07779 33.3418 4.07417 36.2883 4.06789 39.2348C4.0627 41.7647 4.06093 44.2946 4.06189 46.8245C4.06243 48.3354 4.06165 49.8463 4.05756 51.3572C4.05385 52.7786 4.05443 54.2 4.05827 55.6214C4.05896 56.1426 4.05816 56.6637 4.05573 57.1849C4.05264 57.8975 4.05503 58.6099 4.05876 59.3225C4.05659 59.5277 4.05442 59.7329 4.05218 59.9444C4.06838 61.4189 4.3876 62.4037 5.05268 63.6933C6.48392 65.0878 7.60343 65.2031 9.54522 65.2015C9.92357 65.2019 10.3019 65.2023 10.6917 65.2027C11.1104 65.2017 11.529 65.2006 11.9476 65.1995C12.3889 65.1994 12.8302 65.1995 13.2714 65.1996C14.4691 65.1997 15.6667 65.198 16.8643 65.1959C18.116 65.1941 19.3677 65.1939 20.6195 65.1936C22.9896 65.1927 25.3598 65.1902 27.73 65.1873C30.4284 65.184 33.1268 65.1824 35.8252 65.1809C41.3759 65.1778 46.9266 65.1726 52.4773 65.1661C52.4978 62.0191 52.5135 58.8721 52.5231 55.725C52.5277 54.2636 52.5339 52.8022 52.544 51.3408C52.5536 49.9293 52.5588 48.5179 52.5611 47.1065C52.5628 46.5691 52.5659 46.0317 52.5707 45.4943C52.5772 44.7392 52.578 43.9843 52.5776 43.2292C52.5808 43.0091 52.584 42.7889 52.5872 42.5621C52.5781 40.9857 52.2456 39.801 51.5936 38.3609C50.9842 37.8737 50.9842 37.8737 50.2681 37.6797C49.3182 37.3552 48.6745 37.1153 48.0588 36.2989C47.9185 35.6845 47.9185 35.6845 47.8747 35.0102C47.8539 34.7755 47.833 34.5409 47.8115 34.2991C47.7762 33.8121 47.7423 33.325 47.7091 32.8378C47.5012 32.0723 47.5012 32.0723 46.586 31.5123C45.7825 30.8927 45.5412 30.4558 45.3894 29.4503C45.3287 28.4062 45.5076 27.6582 45.8865 26.6888C46.301 25.6192 46.3342 25.5089 45.8865 24.3691C45.6495 23.8588 45.6495 23.8588 45.4078 23.3382C45.3077 22.3891 45.3644 21.5828 45.7023 20.6871C46.1845 20.2706 46.1845 20.2706 46.7517 19.8955C47.3434 19.5143 47.3434 19.5143 47.7643 18.9197C47.9484 17.5297 47.8846 16.1899 47.7643 14.7958C47.9587 14.7958 48.1531 14.7958 48.3534 14.7958C48.5114 14.6196 48.6693 14.4435 48.8321 14.2619C49.5396 13.6103 49.8573 13.4888 50.7467 13.231C51.3687 13.0423 51.3687 13.0423 51.8882 12.7339C52.2601 11.7391 52.2601 11.7391 52.4773 10.672C53.0296 9.82509 53.0296 9.82509 53.9501 9.19914C54.8542 9.08644 55.7486 9.05057 56.6587 9.01274C57.8209 8.86059 58.2366 8.32247 58.9577 7.43176C60.0069 6.73227 60.721 6.47864 61.9585 6.6033C63.0816 6.84264 63.0816 6.84264 63.9652 7.43176C64.776 7.34642 65.3859 7.16256 66.1192 6.80582C67.2291 6.44448 68.1556 6.48706 69.2674 6.84264C70.1142 7.56063 70.1142 7.56063 70.7402 8.31545C71.5251 9.10041 71.9492 8.97104 73.0415 8.99663C74.2573 9.08254 74.7583 9.12722 75.7846 9.82509C76.3369 10.672 76.3369 10.672 76.5394 11.7213C76.8084 12.7649 76.8084 12.7649 77.5738 13.0653C78.1015 13.2502 78.6297 13.4339 79.1582 13.6164C79.8716 13.9121 79.8716 13.9121 80.6449 14.6854C81.0525 15.686 81.069 16.1245 81.0131 17.1707C80.9395 18.2175 80.9395 18.2175 81.4181 19.1004C81.8705 19.4517 82.3436 19.7759 82.8173 20.098C83.5026 21.0014 83.5068 21.918 83.4881 23.0378C83.4064 23.6327 83.4064 23.6327 82.9277 24.5716C82.4208 25.3775 82.4208 25.3775 82.7436 26.2101C82.8651 26.4289 82.9866 26.6476 83.1118 26.8729C83.6252 27.8997 83.578 28.9928 83.4064 30.1131C82.9134 31.0002 82.2213 31.6395 81.4445 32.2901C80.9251 32.9141 80.9667 33.2532 81.0131 34.0529C81.0707 36.0209 81.0707 36.0209 80.7553 36.888C80.1545 37.2378 79.5567 37.4845 78.9028 37.72C78.6757 37.8039 78.4487 37.8878 78.2147 37.9742C77.8718 38.0944 77.8718 38.0944 77.522 38.217C76.6153 38.8839 76.5859 39.6386 76.3369 40.7174C76.2804 41.4428 76.2506 42.1707 76.243 42.8983C76.2385 43.2091 76.2385 43.2091 76.234 43.5261C76.225 44.2034 76.2199 44.8807 76.2149 45.5581C76.2094 46.0306 76.2036 46.5032 76.1976 46.9757C76.1826 48.214 76.1709 49.4522 76.1599 50.6904C76.148 51.9562 76.133 53.2219 76.1183 54.4876C76.0898 56.967 76.0649 59.4464 76.0423 61.9259C74.0724 62.2734 74.0724 62.2734 73.244 61.797C72.4489 60.9821 71.7086 60.133 70.9703 59.2668C70.2668 58.4876 69.5048 57.858 68.6782 57.2129C67.9411 57.8789 67.5357 58.418 67.4028 59.4148C67.3841 60.285 67.3974 61.148 67.4264 62.0179C67.4317 62.3204 67.437 62.6228 67.4425 62.9344C67.4563 63.6786 67.4757 64.4222 67.5 65.1661C69.6436 65.1885 71.7872 65.204 73.931 65.2146C74.6598 65.2191 75.3886 65.2251 76.1175 65.2327C77.1667 65.2435 78.2159 65.2485 79.2652 65.2524C79.5897 65.2569 79.914 65.2615 80.2483 65.2662C82.01 65.2666 83.3466 65.1931 84.8792 64.2824C84.9764 63.9908 85.0736 63.6992 85.1738 63.3987C85.3682 63.3987 85.5626 63.3987 85.7629 63.3987C86.3672 62.1555 86.4361 61.0374 86.4288 59.6807C86.4299 59.4569 86.4311 59.2332 86.4322 59.0027C86.4352 58.2542 86.4341 57.5058 86.4329 56.7573C86.4342 56.2202 86.4357 55.683 86.4375 55.1459C86.4414 53.6877 86.4416 52.2295 86.4408 50.7713C86.4405 49.554 86.442 48.3366 86.4434 47.1192C86.4466 44.2474 86.4468 41.3755 86.445 38.5036C86.4432 35.5408 86.4468 32.5781 86.4531 29.6153C86.4583 27.0714 86.4601 24.5275 86.4591 21.9836C86.4586 20.4643 86.4594 18.945 86.4634 17.4257C86.4671 15.997 86.4666 14.5684 86.4627 13.1398C86.462 12.6156 86.4629 12.0915 86.4653 11.5674C86.4684 10.8514 86.466 10.1357 86.4622 9.41981C86.4644 9.21279 86.4666 9.00576 86.4688 8.79246C86.4506 7.13132 85.9626 6.00531 84.9528 4.70706C83.2752 3.40221 81.2164 3.5176 79.1892 3.52565C78.7361 3.52396 78.7361 3.52396 78.274 3.52224C77.2641 3.51921 76.2543 3.52037 75.2444 3.52154C74.5195 3.52026 73.7946 3.51873 73.0697 3.51698C71.3064 3.51345 69.5431 3.5127 67.7798 3.51339C66.3462 3.51391 64.9127 3.5134 63.4791 3.51214C63.1728 3.51188 63.1728 3.51188 62.8602 3.51161C62.4453 3.51125 62.0303 3.5109 61.6154 3.51054C57.7265 3.50734 53.8377 3.50797 49.9489 3.50977C46.3934 3.51129 42.8379 3.50797 39.2824 3.50237C35.6288 3.49666 31.9753 3.49423 28.3218 3.49534C26.2717 3.4959 24.2216 3.49517 22.1715 3.49101C20.2438 3.48713 18.3162 3.48787 16.3885 3.49172C15.6813 3.49241 14.974 3.49161 14.2668 3.48918C13.3009 3.4861 12.3352 3.48848 11.3692 3.49221C11.0898 3.49004 10.8104 3.48787 10.5226 3.48563C8.51821 3.50194 6.70167 3.7007 5.23679 5.20413ZM60.7251 9.78827C60.4193 10.2723 60.1254 10.764 59.8414 11.2611C58.8737 11.9003 57.9631 11.9599 56.8221 12.0343C56.5047 12.0563 56.1872 12.0784 55.8602 12.101C55.4979 12.1227 55.4979 12.1227 55.1284 12.1448C55.019 12.5032 54.9096 12.8617 54.797 13.231C54.2815 14.5983 53.6906 15.1652 52.4773 15.9741C51.4831 16.3607 51.4831 16.3607 50.7099 16.5632C50.7202 16.78 50.7304 16.9968 50.741 17.2202C50.823 20.1763 50.823 20.1763 49.8262 21.2762C49.0346 21.8101 49.0346 21.8101 48.3534 22.1599C48.7368 23.3616 48.7368 23.3616 49.2371 24.5164C49.3478 26.2048 49.2386 26.8972 48.3534 28.3457C48.6319 29.3667 49.3367 30.0162 50.1208 30.7022C50.3152 30.7022 50.5096 30.7022 50.7099 30.7022C50.7099 32.0631 50.7099 33.424 50.7099 34.8261C51.1838 35.0205 51.6577 35.2149 52.1459 35.4152C52.4125 35.5246 52.679 35.6339 52.9537 35.7466C53.6231 36.0382 53.6231 36.0382 54.2447 36.0044C54.5363 37.0736 54.8279 38.1429 55.1284 39.2445C55.5779 39.2263 56.0275 39.2081 56.4907 39.1893C57.8355 39.1931 58.7095 39.3467 59.8414 40.1282C60.541 40.9199 60.541 40.9199 61.0196 41.6011C61.6899 41.4521 62.2432 41.2838 62.8606 40.9751C64.5282 40.4445 66.2071 41.0058 67.7946 41.6011C68.1998 41.2212 68.5921 40.8273 68.9728 40.4228C68.9728 40.2284 68.9728 40.034 68.9728 39.8337C70.4837 39.2138 71.7891 39.1805 73.3913 39.2445C73.5302 38.941 73.5302 38.941 73.672 38.6313C73.7981 38.3658 73.9241 38.1004 74.054 37.827C74.177 37.5638 74.3001 37.3007 74.4268 37.0296C75.2939 35.5807 76.6016 35.1384 78.1043 34.5315C78.0906 34.336 78.0769 34.1404 78.0628 33.939C77.9746 31.7804 77.9746 31.7804 78.6934 30.7022C78.8878 30.5078 79.0822 30.3134 79.2825 30.1131C79.2825 29.9187 79.2825 29.7243 79.2825 29.524C79.6713 29.3296 80.0602 29.1352 80.4608 28.9348C80.4608 28.7404 80.4608 28.546 80.4608 28.3457C80.2663 28.3457 80.0719 28.3457 79.8716 28.3457C79.6145 27.4498 79.5205 26.6261 79.5034 25.6947C79.4958 25.4456 79.4882 25.1965 79.4804 24.9398C79.5965 24.0775 79.9288 23.7156 80.4608 23.0436C80.5636 22.1601 80.5636 22.1601 80.0201 21.7077C79.8313 21.5592 79.6426 21.4108 79.4482 21.2578C78.4255 20.4458 78.4255 20.4458 78.1043 19.8034C78.0835 19.2515 78.0794 18.6988 78.0858 18.1465C78.0885 17.8511 78.0912 17.5557 78.0939 17.2513C78.0973 17.0242 78.1007 16.7972 78.1043 16.5632C77.9019 16.4952 77.6995 16.4273 77.491 16.3572C75.3138 15.5692 75.3138 15.5692 74.5695 14.6854C74.2492 13.8446 73.9462 13.0062 73.6858 12.1448C73.3441 12.1488 73.3441 12.1488 72.9954 12.1528C71.2454 12.103 70.1257 12.0211 68.8255 10.7824C68.5658 10.4942 68.5658 10.4942 68.3008 10.2002C68.1338 10.0643 67.9667 9.92832 67.7946 9.78827C67.203 9.82744 67.203 9.82744 66.6163 10.0828C64.6664 10.6739 63.7295 10.7193 61.9033 9.78827C61.5145 9.78827 61.1257 9.78827 60.7251 9.78827ZM55.7175 42.4847C55.7175 52.1081 55.7175 61.7315 55.7175 71.6465C57.1897 70.3957 57.1897 70.3957 58.5527 69.0322C59.2522 68.4063 59.2522 68.4063 59.9265 68.2659C61.0842 68.4694 61.6584 69.1922 62.4188 70.0264C62.9306 70.5703 63.4459 71.1097 63.9652 71.6465C64.0624 71.6465 64.1597 71.6465 64.2598 71.6465C64.2598 68.4387 64.2598 65.2309 64.2598 61.9259C63.2391 62.0717 63.2391 62.0717 62.1979 62.2204C61.5379 61.2304 61.5305 60.882 61.5148 59.7222C61.509 59.392 61.5031 59.0618 61.4971 58.7216C61.4937 58.3654 61.4903 58.0091 61.4868 57.6421C61.4811 57.2772 61.4754 56.9123 61.4695 56.5364C61.4548 55.5674 61.4427 54.5984 61.4317 53.6294C61.4199 52.6401 61.4049 51.6509 61.3901 50.6617C61.3618 48.7216 61.3368 46.7814 61.3142 44.8412C61.1518 44.7864 60.9893 44.7316 60.822 44.6751C60.6093 44.6001 60.3965 44.525 60.1773 44.4477C59.9663 44.3747 59.7553 44.3016 59.5379 44.2264C58.7067 43.8413 58.3142 43.2106 57.7794 42.4847C56.8928 42.1086 56.6587 42.171 55.7175 42.4847ZM71.9184 42.1902C71.0957 42.6961 71.0957 42.6961 70.4456 43.3684C70.4456 43.5628 70.4456 43.7573 70.4456 43.9576C68.111 45.0816 67.3026 44.7071 64.5544 43.9576C64.5544 48.2346 64.5544 52.5117 64.5544 56.9183C66.0659 55.6246 66.0659 55.6246 67.5368 54.2857C68.3837 53.6781 68.3837 53.6781 69.0764 53.6942C70.123 54.0678 70.6455 54.6577 71.403 55.4639C71.8658 55.9521 72.3313 56.4379 72.8021 56.9183C72.8993 56.9183 72.9965 56.9183 73.0967 56.9183C73.0967 52.1552 73.0967 47.3922 73.0967 42.4847C72.7079 42.3875 72.319 42.2903 71.9184 42.1902Z" fill="url(#paint0_linear_214_800)"/>
<path d="M45.4076 13.0287C45.3708 14.0597 45.3708 14.0597 45.1131 15.0907C44.3182 15.6221 43.6741 15.7537 42.7295 15.7559C42.4921 15.7579 42.2546 15.7599 42.01 15.762C41.7522 15.7612 41.4943 15.7605 41.2286 15.7597C40.8182 15.762 40.8182 15.762 40.3995 15.7644C39.8057 15.7674 39.212 15.7691 38.6183 15.7696C37.6786 15.7707 36.739 15.7756 35.7994 15.7816C33.1279 15.798 30.4564 15.807 27.7849 15.8142C26.1505 15.8189 24.5162 15.8278 22.8819 15.8392C22.2591 15.8426 21.6363 15.8444 21.0135 15.8444C20.1426 15.8444 19.272 15.8498 18.4011 15.8564C18.1439 15.855 17.8866 15.8537 17.6215 15.8523C16.2592 15.8685 15.2237 15.8827 14.184 16.8581C13.2737 18.662 13.1741 20.244 13.1906 22.2391C13.1895 22.5326 13.1885 22.826 13.1874 23.1283C13.185 24.0921 13.189 25.0557 13.1933 26.0194C13.1934 26.692 13.1933 27.3647 13.1928 28.0373C13.1929 29.4442 13.1959 30.851 13.2013 32.2579C13.208 34.0599 13.2081 35.8619 13.2061 37.6639C13.2051 39.0518 13.2071 40.4396 13.21 41.8274C13.2111 42.4919 13.2115 43.1564 13.211 43.8208C13.2109 44.7493 13.2146 45.6777 13.2194 46.6062C13.2187 46.8798 13.2179 47.1535 13.2172 47.4354C13.2312 49.1447 13.3024 50.6175 14.4417 51.9847C15.4325 52.8006 16.2105 53.1622 17.498 53.1673C17.7457 53.1698 17.9935 53.1722 18.2488 53.1747C18.5181 53.1744 18.7875 53.1741 19.065 53.1739C19.4934 53.1769 19.4934 53.1769 19.9304 53.18C20.5501 53.184 21.1699 53.1866 21.7897 53.1881C22.7701 53.1906 23.7504 53.1966 24.7309 53.2036C26.8119 53.2178 28.893 53.2275 30.9741 53.2366C33.3854 53.2471 35.7967 53.2594 38.2079 53.2766C39.1746 53.2825 40.1412 53.285 41.1079 53.2873C41.6996 53.2911 42.2914 53.2951 42.8831 53.2993C43.1525 53.299 43.4218 53.2987 43.6994 53.2984C43.9471 53.3008 44.1949 53.3033 44.4502 53.3058C44.6648 53.3066 44.8794 53.3075 45.1005 53.3084C45.7939 53.3953 46.2761 53.6303 46.8804 53.973C46.9357 54.9671 46.9357 54.9671 46.8804 56.0349C45.9723 56.6404 45.7825 56.6982 44.7565 56.7028C44.5038 56.7053 44.2512 56.7078 43.9908 56.7104C43.7145 56.7102 43.4381 56.7099 43.1534 56.7096C42.7157 56.7126 42.7157 56.7126 42.2692 56.7156C41.3017 56.7212 40.3343 56.7224 39.3668 56.723C38.6942 56.7249 38.0216 56.7269 37.3489 56.7289C35.937 56.7325 34.5251 56.7336 33.1131 56.7332C31.3074 56.7331 29.5019 56.7412 27.6963 56.7513C26.3059 56.7579 24.9155 56.7591 23.5251 56.7588C22.8597 56.7595 22.1943 56.7621 21.5289 56.7666C20.5955 56.7724 19.6623 56.7707 18.7288 56.7671C18.3197 56.7721 18.3197 56.7721 17.9022 56.7772C16.0283 56.7592 14.6555 56.3229 13.0057 55.4458C12.8113 55.3486 12.6169 55.2514 12.4166 55.1512C12.4166 54.9568 12.4166 54.7624 12.4166 54.5621C12.2222 54.5621 12.0278 54.5621 11.8275 54.5621C11.8275 54.3677 11.8275 54.1733 11.8275 53.973C11.6331 53.973 11.4387 53.973 11.2384 53.973C10.2257 52.3071 9.73039 51.0465 9.72615 49.0692C9.72489 48.8029 9.72364 48.5366 9.72234 48.2623C9.72248 47.9738 9.72261 47.6853 9.72275 47.3881C9.72176 47.0814 9.72077 46.7747 9.71975 46.4586C9.71695 45.4452 9.71638 44.4317 9.71606 43.4182C9.71511 42.7127 9.71412 42.0072 9.71309 41.3017C9.71132 39.8227 9.71078 38.3437 9.71095 36.8647C9.71098 34.9719 9.70696 33.0791 9.70189 31.1863C9.69861 29.7289 9.69802 28.2716 9.69817 26.8143C9.69783 26.1166 9.69652 25.4189 9.69424 24.7212C9.69135 23.7441 9.69221 22.767 9.69398 21.7899C9.69233 21.5032 9.69067 21.2165 9.68896 20.9211C9.7 18.5215 9.88858 16.5382 11.5881 14.7041C11.805 14.4622 12.0218 14.2203 12.2452 13.9711C13.9789 12.4944 15.6187 12.3079 17.8108 12.3076C18.0778 12.3041 18.3449 12.3006 18.62 12.297C19.4979 12.2867 20.3756 12.2825 21.2535 12.2785C21.8664 12.2728 22.4793 12.2668 23.0922 12.2604C24.3748 12.2479 25.6573 12.2383 26.9399 12.2309C28.5812 12.2214 30.2223 12.2068 31.8635 12.1903C33.1285 12.1778 34.3935 12.1671 35.6586 12.157C36.2636 12.1521 36.8687 12.1469 37.4737 12.1414C38.3203 12.1342 39.1669 12.1291 40.0135 12.1246C40.2617 12.1222 40.51 12.1198 40.7658 12.1173C44.4835 12.1046 44.4835 12.1046 45.4076 13.0287Z" fill="url(#paint1_linear_214_800)"/>
<path d="M72.6365 16.7106C73.3834 17.4393 73.6969 17.9273 73.9804 18.9198C74.1748 18.9198 74.3693 18.9198 74.5696 18.9198C74.756 19.2684 74.9395 19.6185 75.1219 19.9692C75.2244 20.164 75.3269 20.3588 75.4325 20.5595C76.7084 23.4604 76.8608 26.9046 75.7846 29.8923C75.4163 30.7709 75.0017 31.6209 74.5696 32.4697C74.3751 32.4697 74.1807 32.4697 73.9804 32.4697C73.8677 32.7294 73.8677 32.7294 73.7526 32.9944C72.5267 35.2119 70.0237 36.4461 67.7083 37.2069C64.3455 38.0396 61.2452 37.5421 58.242 35.9101C55.6436 34.3091 53.8548 32.0844 52.7719 29.2295C52.0515 25.8233 52.3042 22.3131 53.9502 19.2144C54.1446 19.2144 54.339 19.2144 54.5393 19.2144C54.5655 19.0413 54.5917 18.8681 54.6187 18.6897C55.1744 17.0018 57.4843 15.6379 58.9577 14.796C63.8657 12.8485 68.4126 13.4662 72.6365 16.7106ZM57.7795 19.8035C56.1413 21.8272 55.4728 24.3037 55.7175 26.873C56.2793 29.3422 57.3826 31.6572 59.5653 33.0496C61.8054 34.242 64.195 34.673 66.6946 34.0783C69.0482 33.2608 71.0368 31.7775 72.2154 29.5529C73.1491 27.4088 73.5259 25.3406 72.8332 23.0598C72.549 22.3548 72.2506 21.6654 71.9185 20.9818C71.7241 20.9818 71.5297 20.9818 71.3294 20.9818C71.3172 20.8177 71.3051 20.6537 71.2925 20.4847C70.7519 19.056 69.346 18.3181 68.0339 17.6679C64.2048 16.0912 60.7849 17.1063 57.7795 19.8035Z" fill="url(#paint2_linear_214_800)"/>
<path d="M23.7402 41.6127C24.7743 42.0011 25.0626 42.5579 25.6538 43.4791C26.5016 44.7988 27.1625 45.4111 28.6178 46.0197C28.6056 45.7888 28.5935 45.5579 28.581 45.3201C28.6178 44.5469 28.6178 44.5469 29.2069 43.9577C29.9801 43.8104 29.9801 43.8104 30.9743 43.9577C31.5001 44.3225 31.5001 44.3225 32.0605 44.7862C34.3045 46.5788 37.1115 46.7357 39.8847 46.956C41.4408 47.0997 41.4408 47.0997 42.1596 47.6121C42.6081 48.3078 42.6036 48.7464 42.4622 49.5544C41.5504 50.4428 40.861 50.5654 39.6087 50.567C37.1327 50.5163 34.0996 50.0861 31.858 48.9653C30.637 48.8923 30.637 48.8923 29.5015 49.2599C27.8494 49.5358 26.7534 49.3137 25.3592 48.3762C24.9682 48.0874 24.5799 47.7948 24.1994 47.4925C24.0319 47.6523 23.8644 47.8122 23.6919 47.9769C22.36 49.211 21.2496 50.2336 19.4863 50.7327C18.3786 50.67 17.9183 50.6374 17.1298 49.849C16.986 48.9941 16.986 48.9941 17.1298 48.0816C17.872 47.5097 17.872 47.5097 18.842 47.0322C20.1783 46.3664 20.914 45.9208 21.5483 44.5469C21.7401 43.9203 21.7401 43.9203 21.8428 43.3134C22.1663 42.0801 22.4006 41.5913 23.7402 41.6127Z" fill="url(#paint3_linear_214_800)"/>
<path d="M20.3968 32.6499C20.7089 32.6475 20.7089 32.6475 21.0272 32.6452C21.7133 32.6413 22.3992 32.6439 23.0853 32.6468C23.5629 32.6463 24.0405 32.6454 24.5181 32.6443C25.5185 32.643 26.5188 32.6449 27.5191 32.649C28.8009 32.654 30.0825 32.6511 31.3643 32.6458C32.3503 32.6427 33.3363 32.6437 34.3223 32.646C34.7949 32.6466 35.2675 32.6458 35.7401 32.6438C36.4008 32.6415 37.0613 32.6449 37.722 32.6499C38.2857 32.6509 38.2857 32.6509 38.8608 32.652C39.8705 32.7712 40.2937 32.916 40.9892 33.6479C41.1181 34.55 41.1181 34.55 40.9892 35.4153C39.8863 36.1505 39.3097 36.079 37.9912 36.0806C37.6699 36.0822 37.6699 36.0822 37.3422 36.0838C36.634 36.0864 35.9258 36.0846 35.2176 36.0826C34.7257 36.083 34.2337 36.0836 33.7418 36.0844C32.7107 36.0852 31.6797 36.084 30.6486 36.0812C29.3262 36.0779 28.0039 36.0798 26.6815 36.0833C25.6657 36.0854 24.6498 36.0848 23.634 36.0832C23.1464 36.0828 22.6587 36.0833 22.1711 36.0847C21.4899 36.0862 20.8088 36.0839 20.1276 36.0806C19.5458 36.0799 19.5458 36.0799 18.9523 36.0792C18.0133 36.0044 18.0133 36.0044 17.1296 35.4153C17.0007 34.55 17.0007 34.55 17.1296 33.6479C18.1113 32.6147 19.0203 32.6524 20.3968 32.6499Z" fill="url(#paint4_linear_214_800)"/>
<path d="M20.3968 26.7585C20.7089 26.7562 20.7089 26.7562 21.0272 26.7538C21.7133 26.7499 22.3992 26.7525 23.0853 26.7555C23.5629 26.7549 24.0405 26.754 24.5181 26.7529C25.5185 26.7516 26.5188 26.7535 27.5191 26.7576C28.8009 26.7627 30.0825 26.7598 31.3643 26.7545C32.3503 26.7513 33.3363 26.7523 34.3223 26.7546C34.7949 26.7552 35.2675 26.7545 35.7401 26.7524C36.4008 26.7502 37.0613 26.7536 37.722 26.7585C38.2857 26.7596 38.2857 26.7596 38.8608 26.7606C39.8705 26.8799 40.2937 27.0246 40.9892 27.7565C41.1181 28.6586 41.1181 28.6586 40.9892 29.5239C39.8863 30.2592 39.3097 30.1877 37.9912 30.1893C37.6699 30.1908 37.6699 30.1908 37.3422 30.1924C36.634 30.195 35.9258 30.1933 35.2176 30.1913C34.7257 30.1917 34.2337 30.1923 33.7418 30.193C32.7107 30.1939 31.6797 30.1926 30.6486 30.1899C29.3262 30.1865 28.0039 30.1884 26.6815 30.192C25.6657 30.1941 24.6498 30.1934 23.634 30.1919C23.1464 30.1915 22.6587 30.192 22.1711 30.1933C21.4899 30.1948 20.8088 30.1926 20.1276 30.1893C19.5458 30.1886 19.5458 30.1886 18.9523 30.1879C18.0133 30.113 18.0133 30.113 17.1296 29.5239C17.0007 28.6586 17.0007 28.6586 17.1296 27.7565C18.1113 26.7234 19.0203 26.7611 20.3968 26.7585Z" fill="url(#paint5_linear_214_800)"/>
<path d="M20.3968 20.8674C20.7089 20.8651 20.7089 20.8651 21.0272 20.8627C21.7133 20.8588 22.3992 20.8614 23.0853 20.8644C23.5629 20.8638 24.0405 20.8629 24.5181 20.8618C25.5185 20.8605 26.5188 20.8624 27.5191 20.8665C28.8009 20.8716 30.0825 20.8687 31.3643 20.8634C32.3503 20.8602 33.3363 20.8612 34.3223 20.8635C34.7949 20.8641 35.2675 20.8634 35.7401 20.8613C36.4008 20.8591 37.0613 20.8625 37.722 20.8674C38.2857 20.8685 38.2857 20.8685 38.8608 20.8695C39.8705 20.9888 40.2937 21.1335 40.9892 21.8654C41.1181 22.7675 41.1181 22.7675 40.9892 23.6328C39.8863 24.3681 39.3097 24.2966 37.9912 24.2982C37.6699 24.2997 37.6699 24.2997 37.3422 24.3013C36.634 24.3039 35.9258 24.3022 35.2176 24.3002C34.7257 24.3006 34.2337 24.3011 33.7418 24.3019C32.7107 24.3028 31.6797 24.3015 30.6486 24.2987C29.3262 24.2954 28.0039 24.2973 26.6815 24.3008C25.6657 24.303 24.6498 24.3023 23.634 24.3008C23.1464 24.3004 22.6587 24.3009 22.1711 24.3022C21.4899 24.3037 20.8088 24.3014 20.1276 24.2982C19.5458 24.2975 19.5458 24.2975 18.9523 24.2967C18.0133 24.2219 18.0133 24.2219 17.1296 23.6328C17.0007 22.7675 17.0007 22.7675 17.1296 21.8654C18.1113 20.8323 19.0203 20.87 20.3968 20.8674Z" fill="url(#paint6_linear_214_800)"/>
<defs>
<linearGradient id="paint0_linear_214_800" x1="4.41053" y1="113.348" x2="92.2632" y2="109.892" gradientUnits="userSpaceOnUse">
<stop offset="0.22" stop-color="#0B271B"/>
<stop offset="0.54526" stop-color="#204D36"/>
<stop offset="0.846622" stop-color="#0B271B"/>
</linearGradient>
<linearGradient id="paint1_linear_214_800" x1="11.2112" y1="77.8903" x2="48.0016" y2="76.8507" gradientUnits="userSpaceOnUse">
<stop offset="0.22" stop-color="#0B271B"/>
<stop offset="0.54526" stop-color="#204D36"/>
<stop offset="0.846622" stop-color="#0B271B"/>
</linearGradient>
<linearGradient id="paint2_linear_214_800" x1="53.3767" y1="48.9087" x2="77.1911" y2="48.0949" gradientUnits="userSpaceOnUse">
<stop offset="0.22" stop-color="#0B271B"/>
<stop offset="0.54526" stop-color="#204D36"/>
<stop offset="0.846622" stop-color="#0B271B"/>
</linearGradient>
<linearGradient id="paint3_linear_214_800" x1="18.0656" y1="55.0442" x2="43.0822" y2="52.6712" gradientUnits="userSpaceOnUse">
<stop offset="0.22" stop-color="#0B271B"/>
<stop offset="0.54526" stop-color="#204D36"/>
<stop offset="0.846622" stop-color="#0B271B"/>
</linearGradient>
<linearGradient id="paint4_linear_214_800" x1="18.0164" y1="37.7123" x2="40.5388" y2="32.3778" gradientUnits="userSpaceOnUse">
<stop offset="0.22" stop-color="#0B271B"/>
<stop offset="0.54526" stop-color="#204D36"/>
<stop offset="0.846622" stop-color="#0B271B"/>
</linearGradient>
<linearGradient id="paint5_linear_214_800" x1="18.0164" y1="31.821" x2="40.5388" y2="26.4864" gradientUnits="userSpaceOnUse">
<stop offset="0.22" stop-color="#0B271B"/>
<stop offset="0.54526" stop-color="#204D36"/>
<stop offset="0.846622" stop-color="#0B271B"/>
</linearGradient>
<linearGradient id="paint6_linear_214_800" x1="18.0164" y1="25.9299" x2="40.5388" y2="20.5953" gradientUnits="userSpaceOnUse">
<stop offset="0.22" stop-color="#0B271B"/>
<stop offset="0.54526" stop-color="#204D36"/>
<stop offset="0.846622" stop-color="#0B271B"/>
</linearGradient>
</defs>
</svg>
