<svg width="77" height="89" viewBox="0 0 77 89" fill="none" xmlns="http://www.w3.org/2000/svg">
<path d="M54.8309 17.6807C55.0565 17.8376 55.282 17.9944 55.5144 18.156C55.6777 18.2908 55.8409 18.4256 56.0092 18.5644C56.0092 18.7588 56.0092 18.9533 56.0092 19.1536C56.1914 19.2265 56.3737 19.2994 56.5615 19.3745C57.2907 19.8034 57.4676 20.1486 57.7765 20.9209C57.971 20.9209 58.1654 20.9209 58.3657 20.9209C59.0347 21.6792 59.5944 22.4702 60.1515 23.3143C60.6579 24.1277 60.6579 24.1277 61.1647 24.5925C61.9064 25.3529 62.3049 26.3265 62.7657 27.2724C62.8702 27.4854 62.9747 27.6984 63.0824 27.9179C67.0507 36.0817 67.8447 45.2255 65.2327 53.9672C63.9876 57.3853 62.0924 60.4973 59.8385 63.338C59.7221 63.489 59.6056 63.64 59.4857 63.7956C54.5503 70.1681 46.9486 74.6234 38.9333 75.7944C34.8871 76.2983 30.5348 76.3162 26.5529 75.4151C26.2461 75.3497 25.9393 75.2844 25.6232 75.2171C18.5962 73.4768 11.3393 69.0389 7.11175 63.0434C7.11175 62.849 7.11175 62.6546 7.11175 62.4543C6.91734 62.4543 6.72293 62.4543 6.52262 62.4543C6.32821 61.8711 6.1338 61.2878 5.9335 60.6869C5.73909 60.6869 5.54467 60.6869 5.34437 60.6869C4.86819 59.7191 4.3971 58.7488 3.92679 57.7781C3.7937 57.5078 3.66061 57.2374 3.52349 56.9589C2.66988 55.1893 1.99534 53.4605 1.51506 51.5555C1.39381 51.0835 1.39381 51.0835 1.27011 50.602C0.683462 48.1258 0.481083 45.7748 0.502496 43.2341C0.504513 42.8623 0.50653 42.4906 0.508609 42.1076C0.611952 36.0572 2.58043 30.9468 5.34437 25.6339C5.53878 25.6339 5.73319 25.6339 5.9335 25.6339C6.12791 25.0507 6.32232 24.4675 6.52262 23.8666C6.71703 23.8666 6.91145 23.8666 7.11175 23.8666C7.21199 23.5476 7.21199 23.5476 7.31426 23.2222C7.68464 22.4285 8.06591 21.9571 8.70078 21.3651C9.29574 20.8063 9.85693 20.2177 10.4256 19.6322C13.6089 16.4646 17.391 14.0745 21.5453 12.3786C21.7948 12.2731 22.0443 12.1675 22.3013 12.0587C33.4581 7.63594 45.5448 10.7236 54.8309 17.6807ZM13.2792 23.5168C13.1349 23.6583 12.9906 23.7998 12.842 23.9456C12.0525 24.6561 12.0525 24.6561 11.8248 25.6339C11.3873 25.7797 11.3873 25.7797 10.9411 25.9285C10.4466 26.5117 10.4466 26.5117 10.0021 27.2172C9.84608 27.4504 9.69002 27.6835 9.52923 27.9237C9.1035 28.5847 9.1035 28.5847 9.17369 29.4633C8.97928 29.4633 8.78487 29.4633 8.58456 29.4633C5.02467 37.1645 4.24324 44.9353 7.11175 53.0283C7.85479 54.9838 8.6681 56.841 9.76281 58.625C9.95722 58.625 10.1516 58.625 10.3519 58.625C10.4795 58.9622 10.4795 58.9622 10.6097 59.3061C10.9301 60.1421 10.9301 60.1421 11.5302 60.9815C11.7246 60.9815 11.919 60.9815 12.1193 60.9815C12.188 61.1448 12.2568 61.308 12.3276 61.4762C14.7423 65.8095 20.2578 68.6552 24.7855 70.1129C25.3357 70.2952 25.3357 70.2952 25.897 70.4811C33.0888 72.6212 40.9052 71.4949 47.4669 68.051C50.4109 66.3927 53.8594 63.883 55.7146 60.9815C55.7146 60.7871 55.7146 60.5927 55.7146 60.3923C55.909 60.3923 56.1034 60.3923 56.3037 60.3923C56.8112 59.7234 56.8112 59.7234 57.3163 58.8827C57.58 58.4624 57.58 58.4624 57.849 58.0335C58.7128 56.56 59.3981 55.066 60.0042 53.4701C60.1261 53.1512 60.248 52.8322 60.3735 52.5036C60.4886 52.1907 60.6036 51.8778 60.7222 51.5555C60.872 51.159 60.872 51.159 61.0248 50.7546C63.1309 43.6496 61.8464 36.6741 58.9548 30.0524C58.7604 30.0524 58.566 30.0524 58.3657 30.0524C58.3474 29.858 58.3292 29.6636 58.3104 29.4633C57.9816 28.2492 57.3825 27.2076 56.5983 26.2231C56.4039 26.2231 56.2095 26.2231 56.0092 26.2231C55.9306 26.0514 55.852 25.8798 55.771 25.703C52.9014 20.3214 46.1844 17.1925 40.6551 15.5083C30.7029 12.9769 20.4255 16.4671 13.2792 23.5168Z" fill="url(#paint0_linear_214_852)"/>
<path d="M33.0333 0.301311C43.9683 -0.148586 54.3136 3.89112 62.487 11.1305C69.4395 17.5349 69.4395 17.5349 69.8537 20.6261C70.0481 20.6261 70.2425 20.6261 70.4428 20.6261C70.4428 20.9178 70.4428 21.2094 70.4428 21.5098C70.6372 21.5098 70.8316 21.5098 71.0319 21.5098C71.313 22.1422 71.5939 22.7746 71.8742 23.4072C72.0836 23.877 72.295 24.3458 72.5093 24.8133C75.1178 30.5374 76.4589 36.3614 76.4261 42.6447C76.4257 42.8528 76.4252 43.061 76.4248 43.2754C76.4132 46.3209 76.2637 49.1935 75.4504 52.1444C75.3171 52.6689 75.3171 52.6689 75.1811 53.2041C73.7944 58.3845 71.5488 63.0717 68.6018 67.5353C68.484 67.7142 68.3662 67.8932 68.2449 68.0776C67.5004 69.1744 66.6864 70.0825 65.7298 70.9964C65.4113 71.3199 65.0937 71.6445 64.7771 71.9698C61.1189 75.6968 61.1189 75.6969 58.9549 77.1822C58.6537 77.3895 58.3526 77.5968 58.0424 77.8104C54.7175 80.0461 51.2226 81.8523 47.4485 83.2023C47.2452 83.2751 47.042 83.3479 46.8325 83.4229C45.5303 83.8673 44.466 84.0492 43.0485 84.2517C43.7289 85.6126 44.4093 86.9735 45.1104 88.3756C43.8138 88.1163 43.3751 87.9754 42.3489 87.2894C39.4102 85.4658 36.0193 84.4066 32.7388 83.368C32.7388 83.1736 32.7388 82.9792 32.7388 82.7789C33.1454 82.575 33.1454 82.575 33.5603 82.367C37.2136 80.499 40.4914 78.3961 43.343 75.4148C43.5374 75.4148 43.7319 75.4148 43.9322 75.4148C43.7919 75.9919 43.6505 76.5687 43.5087 77.1454C43.4301 77.4666 43.3515 77.7878 43.2705 78.1188C43.0485 78.9496 43.0485 78.9496 42.7539 79.5387C47.9868 78.0558 52.5868 76.1191 56.8929 72.7638C57.1371 72.5849 57.3812 72.4061 57.6328 72.2218C60.1258 70.3727 62.3227 68.2593 63.9164 65.5815C64.0288 65.4243 64.1412 65.2671 64.257 65.1051C64.4514 65.1051 64.6458 65.1051 64.8461 65.1051C64.9236 64.8955 65.001 64.6859 65.0808 64.47C65.4516 63.5936 65.8972 62.8244 66.3926 62.0122C68.1853 58.9672 69.559 55.8638 70.4428 52.4389C70.5279 52.1093 70.6129 51.7797 70.7005 51.4402C71.2796 48.8234 71.4541 46.2224 71.5658 43.5468C71.5815 43.2041 71.5971 42.8614 71.6132 42.5083C71.7235 39 71.147 35.7596 70.1482 32.4087C70.0784 32.1569 70.0085 31.9052 69.9365 31.6458C67.5962 23.3911 61.7352 15.1033 54.2418 10.7951C53.7525 10.5344 53.2613 10.2772 52.769 10.0219C52.6019 9.93294 52.4347 9.84399 52.2625 9.75235C46.1666 6.51619 39.9127 4.97454 33.0333 4.71975C33.0333 3.26167 33.0333 1.80358 33.0333 0.301311Z" fill="url(#paint1_linear_214_852)"/>
<path d="M26.9153 26.392C27.4033 26.3935 27.4033 26.3935 27.9012 26.3949C28.9431 26.3996 29.9847 26.4125 31.0265 26.4254C31.7129 26.4288 32.3993 26.4316 33.0856 26.434C36.0621 26.4494 39.0398 26.4918 42.014 26.6152C42.2291 26.6215 42.4442 26.6277 42.6658 26.6342C43.5121 26.6775 44.0941 26.7154 44.7895 27.2224C45.249 27.9003 45.3853 28.3455 45.4049 29.1685C45.0148 29.9475 45.0148 29.9475 44.2266 30.6413C43.1668 30.8268 42.1318 30.7797 41.0601 30.7333C40.7704 30.7267 40.4807 30.7201 40.1822 30.7132C39.4679 30.6959 38.7546 30.6717 38.0408 30.6413C38.1582 30.8708 38.1582 30.8708 38.2779 31.105C38.8382 32.2114 39.3721 33.3078 39.8082 34.4706C40.0675 34.4782 40.3269 34.4858 40.5941 34.4936C40.9362 34.5103 41.2783 34.527 41.6308 34.5443C42.1383 34.5648 42.1383 34.5648 42.656 34.5857C43.7949 34.794 44.3048 35.1229 45.1103 35.9434C45.2576 36.8455 45.2576 36.8455 45.1103 37.7108C44.6552 38.3107 44.3087 38.5535 43.6375 38.8891C43.3592 38.8856 43.0809 38.8822 42.7941 38.8787C41.7352 38.8703 40.8342 38.915 39.8082 39.1836C39.0441 40.0564 38.74 41.0538 38.3354 42.1292C37.0313 44.4274 35.1589 45.773 32.6466 46.558C31.7965 46.7736 30.9482 46.9682 30.0876 47.1368C30.6143 47.7208 31.1422 48.3036 31.6709 48.8858C31.8205 49.0519 31.9701 49.218 32.1243 49.3892C32.9233 50.2986 32.9233 50.2986 33.9169 50.9661C34.0354 51.178 34.1539 51.3899 34.2759 51.6082C34.9478 52.672 35.7803 53.4118 36.7153 54.2431C37.056 54.5506 37.3966 54.8582 37.7371 55.166C37.8872 55.3 38.0374 55.4341 38.1921 55.5723C38.3366 55.7047 38.4811 55.8372 38.6299 55.9737C38.7923 56.1179 38.9546 56.2622 39.1218 56.4108C39.5136 56.8574 39.5136 56.8574 39.6057 57.7411C39.5136 58.6248 39.5136 58.6248 38.9245 59.5085C38.004 59.8398 38.004 59.8398 36.8626 59.803C35.9565 59.2369 35.2474 58.5052 34.5061 57.7411C34.3113 57.5463 34.1165 57.3515 33.9158 57.1508C33.5204 56.7554 33.1265 56.3584 32.7341 55.9599C32.1885 55.4229 31.6277 54.9233 31.045 54.4272C29.8205 53.3764 28.6978 52.2367 27.5656 51.0888C26.7218 50.2376 25.865 49.4238 24.9512 48.6464C22.5602 46.5842 22.5602 46.5842 22.1897 44.8171C22.1714 44.5134 22.1532 44.2096 22.1344 43.8966C22.3288 43.8966 22.5233 43.8966 22.7236 43.8966C22.7236 43.7022 22.7236 43.5078 22.7236 43.3075C24.6589 42.4819 26.6699 42.6139 28.7368 42.6033C30.5657 42.5602 32.1645 42.4429 33.6224 41.2456C34.2047 40.5011 34.6697 39.7319 35.0952 38.8891C34.6295 38.896 34.6295 38.896 34.1545 38.9031C32.9956 38.9192 31.8368 38.9292 30.6778 38.9376C30.1776 38.942 29.6773 38.948 29.1771 38.9557C28.4554 38.9665 27.7338 38.9715 27.012 38.9754C26.68 38.9822 26.68 38.9822 26.3413 38.9892C24.8235 38.9897 23.7842 38.6966 22.429 38.0054C22.1344 37.7108 22.1344 37.7108 22.0608 36.7167C22.1344 35.6489 22.1344 35.6489 22.5053 35.1482C23.1285 34.6827 23.4551 34.6497 24.2271 34.6378C24.5897 34.6291 24.5897 34.6291 24.9596 34.6201C25.2192 34.6183 25.4788 34.6164 25.7463 34.6144C26.0131 34.6092 26.2799 34.6039 26.5548 34.5984C27.4072 34.5825 28.2594 34.5725 29.1119 34.5627C29.6897 34.5529 30.2675 34.5427 30.8453 34.5322C32.2619 34.5071 33.6785 34.4875 35.0952 34.4706C34.8745 34.0913 34.6504 33.7141 34.4248 33.3377C34.3004 33.1274 34.1759 32.9171 34.0477 32.7004C33.3187 31.6955 32.445 31.2641 31.2659 30.9359C30.1227 30.7833 28.9939 30.7577 27.8416 30.7518C24.0747 30.7037 24.0747 30.7037 22.7236 30.0522C22.087 29.0973 21.9452 28.8041 22.1344 27.6957C23.4635 26.1422 25.0272 26.3607 26.9153 26.392Z" fill="url(#paint2_linear_214_852)"/>
<defs>
<linearGradient id="paint0_linear_214_852" x1="3.20953" y1="107.406" x2="68.6464" y2="105.185" gradientUnits="userSpaceOnUse">
<stop offset="0.22" stop-color="#0B271B"/>
<stop offset="0.54526" stop-color="#204D36"/>
<stop offset="0.846622" stop-color="#0B271B"/>
</linearGradient>
<linearGradient id="paint1_linear_214_852" x1="34.525" y1="130.027" x2="77.7159" y2="129.301" gradientUnits="userSpaceOnUse">
<stop offset="0.22" stop-color="#0B271B"/>
<stop offset="0.54526" stop-color="#204D36"/>
<stop offset="0.846622" stop-color="#0B271B"/>
</linearGradient>
<linearGradient id="paint2_linear_214_852" x1="23.0114" y1="75.6343" x2="46.0875" y2="75.0884" gradientUnits="userSpaceOnUse">
<stop offset="0.22" stop-color="#0B271B"/>
<stop offset="0.54526" stop-color="#204D36"/>
<stop offset="0.846622" stop-color="#0B271B"/>
</linearGradient>
</defs>
</svg>
