<svg width="91" height="83" viewBox="0 0 91 83" fill="none" xmlns="http://www.w3.org/2000/svg">
<path d="M30.2733 0.26783C32.0734 0.333843 33.8731 0.342526 35.6743 0.352661C39.2314 0.374534 42.785 0.450351 46.3402 0.561843C49.7825 0.669681 53.2235 0.748476 56.6672 0.791395C56.9879 0.795405 56.9879 0.795405 57.3151 0.799496C58.1749 0.810134 59.0346 0.820582 59.8943 0.830774C66.4456 0.908749 72.9971 1.01338 79.5462 1.20059C80.2295 1.21971 80.9127 1.2374 81.5961 1.2536C82.5248 1.2761 83.4531 1.30414 84.3816 1.33394C84.6548 1.3396 84.9279 1.34527 85.2093 1.3511C85.4565 1.36031 85.7037 1.36952 85.9583 1.379C86.2797 1.38832 86.2797 1.38832 86.6076 1.39782C87.1334 1.52147 87.1334 1.52147 87.7225 2.40516C87.795 3.04753 87.795 3.04753 87.7933 3.80863C87.7945 4.24171 87.7945 4.24171 87.7958 4.68354C87.7937 4.99987 87.7915 5.3162 87.7894 5.64212C87.7895 5.97552 87.7895 6.30892 87.7896 6.65242C87.7892 7.75697 87.7846 8.86145 87.78 9.96599C87.7789 10.7308 87.7781 11.4956 87.7775 12.2605C87.7755 14.0694 87.7708 15.8783 87.7649 17.6872C87.7583 19.7466 87.7551 21.8061 87.7521 23.8655C87.746 28.1018 87.7356 32.3381 87.7225 36.5744C86.7643 37.0536 85.8396 36.9027 84.7769 36.869C84.1378 36.23 84.4273 34.7255 84.4218 33.837C84.4189 33.5497 84.416 33.2623 84.413 32.9663C84.4036 32.0116 84.3964 31.0568 84.3891 30.1021C84.383 29.4421 84.3769 28.7821 84.3705 28.1221C84.3542 26.3812 84.3397 24.6403 84.3255 22.8994C84.3108 21.1244 84.2943 19.3495 84.2781 17.5746C84.2463 14.0891 84.2165 10.6036 84.1877 7.11817C84.017 7.28892 83.8462 7.45967 83.6703 7.63559C78.2965 13.0094 78.2965 13.0094 77.5074 13.7617C76.3842 14.9453 76.162 15.7372 76.1162 17.3569C76.1058 17.6981 76.0954 18.0393 76.0847 18.3908C76.0545 19.9476 76.0278 21.5043 76.0121 23.0613C76.0029 23.8826 75.9845 24.7028 75.9577 25.5237C75.9192 26.7086 75.9073 27.8925 75.8974 29.078C75.8751 29.6268 75.8751 29.6268 75.8523 30.1866C75.8574 31.2333 75.8955 32.0483 76.2345 33.0397C77.2107 33.9718 78.2659 34.522 79.4747 35.1016C81.0547 36.2576 82.5621 37.492 83.8932 38.9309C84.0458 39.0889 84.1985 39.2469 84.3557 39.4096C89.7508 45.216 90.7003 51.968 90.4232 59.5785C90.2087 63.2766 88.8477 66.6118 87.1334 69.86C86.9389 69.86 86.7445 69.86 86.5442 69.86C86.3498 70.4433 86.1554 71.0265 85.9551 71.6274C85.7607 71.6274 85.5663 71.6274 85.366 71.6274C85.2866 71.7994 85.2073 71.9714 85.1255 72.1486C82.5302 77.0395 76.8182 79.695 71.8161 81.348C71.5173 81.4494 71.2184 81.5508 70.9106 81.6552C68.7071 82.2818 66.5247 82.312 64.2495 82.3237C63.9323 82.3254 63.615 82.327 63.2882 82.3288C60.9928 82.3072 60.9928 82.3072 60.3282 81.6425C60.2486 80.8506 60.3024 80.0839 60.3282 79.286C61.6181 78.8661 62.8474 78.629 64.1943 78.4576C68.6124 77.7939 72.3377 75.7936 75.0563 72.2165C75.1535 72.0221 75.2507 71.8277 75.3509 71.6274C75.1564 71.7246 74.962 71.8218 74.7617 71.922C74.3665 71.9494 73.97 71.959 73.5738 71.959C73.3239 71.9598 73.0739 71.9606 72.8164 71.9614C72.5402 71.9607 72.264 71.9601 71.9794 71.9594C71.6872 71.9598 71.3951 71.9603 71.094 71.9608C70.1087 71.9619 69.1235 71.961 68.1382 71.9601C67.4343 71.9605 66.7305 71.961 66.0266 71.9616C64.3095 71.9629 62.5923 71.9627 60.8752 71.9618C59.4799 71.9612 58.0846 71.9611 56.6894 71.9614C56.491 71.9614 56.2927 71.9615 56.0884 71.9615C55.6855 71.9616 55.2827 71.9617 54.8798 71.9618C51.0989 71.9627 47.318 71.9617 43.5371 71.9601C40.2911 71.9588 37.045 71.959 33.799 71.9604C30.0324 71.962 26.2658 71.9626 22.4992 71.9617C22.0977 71.9616 21.6962 71.9615 21.2947 71.9614C21.0972 71.9613 20.8996 71.9613 20.6961 71.9613C19.3022 71.961 17.9084 71.9614 16.5145 71.9621C14.6391 71.963 12.7636 71.9624 10.8882 71.9607C10.1984 71.9603 9.50862 71.9604 8.81882 71.9611C7.8801 71.9618 6.9414 71.9609 6.00268 71.9594C5.72714 71.96 5.45161 71.9607 5.16773 71.9614C4.91699 71.9606 4.66626 71.9598 4.40793 71.959C4.19115 71.959 3.97436 71.9589 3.75101 71.9589C3.18297 71.922 3.18297 71.922 2.29928 71.6274C2.01486 64.2712 1.80311 56.9157 1.67354 49.5551C1.61172 46.1356 1.5278 42.7195 1.38819 39.3022C1.26629 36.317 1.18957 33.3342 1.16297 30.3465C1.14744 28.7686 1.11219 27.1978 1.02237 25.6222C0.655493 18.8969 1.3973 13.7053 5.83371 8.39688C12.8985 0.534225 20.1847 -0.168037 30.2733 0.26783ZM21.7701 4.43625C17.5298 4.28152 17.5298 4.28152 13.8194 5.994C13.1258 6.7355 13.1258 6.7355 12.5353 7.5416C12.3056 7.80227 12.0759 8.06294 11.8392 8.33151C10.7049 9.49151 10.7049 9.49151 10.2525 10.9475C9.99731 11.0477 9.99731 11.0477 9.73699 11.15C8.90858 11.6332 8.47635 12.2547 7.89597 13.0094C11.235 13.0573 14.5739 13.0939 17.9131 13.1163C19.4638 13.127 21.0143 13.1416 22.5649 13.165C24.0623 13.1874 25.5594 13.1997 27.057 13.2051C27.6273 13.2089 28.1976 13.2163 28.7678 13.2274C32.2369 13.4417 32.2369 13.4417 35.2656 12.0624C35.58 11.7005 35.8842 11.3294 36.174 10.9475C36.4497 10.6844 36.7253 10.4213 37.0094 10.1502C37.2562 9.90376 37.503 9.65728 37.7573 9.40333C38.1645 8.99666 38.1645 8.99666 38.58 8.58177C38.7168 8.44432 38.8537 8.30687 38.9946 8.16525C39.4207 7.73762 39.8483 7.31163 40.276 6.88574C40.5445 6.6169 40.8129 6.34807 41.0895 6.07109C41.3337 5.8266 41.5778 5.58212 41.8294 5.33022C42.3933 4.85536 42.3933 4.85536 42.3598 4.4671C40.1211 4.46014 37.8823 4.45498 35.6436 4.45184C34.603 4.45033 33.5625 4.4483 32.5219 4.44488C30.3069 4.43795 28.0923 4.43989 25.8773 4.45876C24.5078 4.4691 23.1396 4.45518 21.7701 4.43625ZM44.0052 7.11471C43.7501 7.37135 43.7501 7.37135 43.4897 7.63316C42.9507 8.17678 42.416 8.72444 41.8812 9.27216C41.5201 9.63659 41.1588 10.0008 40.7973 10.3647C40.4488 10.7171 40.1005 11.0698 39.7525 11.4227C39.5126 11.6658 39.5126 11.6658 39.2679 11.9138C38.8204 12.3724 38.3807 12.8376 37.9414 13.304C37.7979 13.4464 37.6544 13.5888 37.5065 13.7355C36.4082 14.8997 36.2933 15.7361 36.3247 17.3059C36.3268 17.5126 36.3289 17.7193 36.331 17.9323C36.3392 18.5868 36.3577 19.2406 36.3765 19.8948C36.3839 20.3409 36.3906 20.7869 36.3966 21.233C36.4116 22.3217 36.4404 23.4087 36.4686 24.4974C38.2183 24.4974 39.968 24.4974 41.7707 24.4974C41.768 23.7805 41.7654 23.0636 41.7626 22.325C41.7671 21.6239 41.775 20.923 41.7833 20.222C41.7871 19.7381 41.7874 19.2541 41.7839 18.7702C41.7549 14.2323 41.7549 14.2323 42.8845 12.907C43.2915 12.5403 43.7069 12.1827 44.1272 11.8312C44.5564 11.402 44.9853 10.9726 45.4099 10.5389C46.1945 9.7394 46.9938 8.95469 47.7908 8.16755C48.4356 7.53055 49.0795 6.89259 49.7227 6.25404C49.945 6.03545 49.945 6.03545 50.1717 5.81245C50.519 5.46772 50.8587 5.11545 51.1967 4.76166C51.1967 4.66446 51.1967 4.56725 51.1967 4.4671C50.6999 4.44284 50.2027 4.42592 49.7055 4.41187C49.4287 4.40162 49.1519 4.39137 48.8667 4.3808C46.7258 4.5838 45.4431 5.63013 44.0052 7.11471ZM62.2946 4.29451C58.9684 4.10744 56.2067 4.00191 53.5785 6.23793C52.0593 7.61126 50.7341 9.14052 49.4751 10.7522C48.8193 11.5624 48.1088 12.2779 47.3674 13.0094C50.6472 13.1958 53.9257 13.336 57.2098 13.4215C58.736 13.4626 60.2586 13.518 61.7828 13.6094C69.4425 14.2465 69.4425 14.2465 76.1878 11.2244C77.9761 9.61226 79.5311 7.78272 80.9556 5.8453C81.5367 5.05623 81.5367 5.05623 82.1258 4.4671C81.0154 4.46325 79.9051 4.45995 78.7947 4.45675C78.2749 4.45508 78.2749 4.45508 77.7446 4.45337C75.8328 4.44834 73.9213 4.44946 72.0096 4.46128C71.2374 4.46566 70.4653 4.4699 69.6932 4.474C69.1218 4.4771 69.1218 4.4771 68.5388 4.48025C66.4493 4.48522 64.3791 4.43386 62.2946 4.29451ZM5.53947 16.2496C5.53947 33.5522 5.53947 50.8548 5.53947 68.6818C27.7024 68.6818 49.8653 68.6818 72.6998 68.6818C73.8769 58.4665 73.8769 58.4665 72.1107 48.9461C70.2854 47.5173 68.119 46.6839 65.9248 46.0005C65.7418 45.9416 65.5588 45.8827 65.3702 45.8221C64.4894 45.658 63.5807 45.7059 62.6847 45.7059C62.5874 48.4276 62.4902 51.1494 62.3901 53.9536C59.7409 53.9536 59.7409 53.9536 58.9692 53.315C58.7931 53.1753 58.6169 53.0356 58.4354 52.8916C58.252 52.7378 58.0686 52.584 57.8796 52.4256C57.4674 52.0981 57.0543 51.7717 56.6404 51.4464C56.3182 51.1916 56.3182 51.1916 55.9895 50.9316C54.8681 50.0721 53.6953 49.291 52.5222 48.5042C50.7578 47.3123 49.0264 46.0915 47.3306 44.8038C45.6618 43.5368 43.9765 42.2977 42.2678 41.0849C42.0545 40.9325 41.8413 40.78 41.6215 40.6229C41.4228 40.4826 41.2241 40.3423 41.0193 40.1978C40.8442 40.0737 40.669 39.9497 40.4885 39.8219C39.9618 39.4682 39.9618 39.4682 39.1196 39.2255C38.9738 38.2048 38.9738 38.2048 38.8251 37.1636C38.9883 37.0888 39.1516 37.014 39.3198 36.9369C40.1102 36.5178 40.7944 36.0214 41.513 35.4882C42.5548 34.7217 43.5994 33.9626 44.6611 33.2238C45.8209 32.416 46.9731 31.5981 48.1222 30.7752C49.873 29.5222 51.6272 28.274 53.3909 27.0392C54.4987 26.2625 55.5953 25.4748 56.6795 24.6654C56.9021 24.5017 57.1246 24.338 57.354 24.1693C57.7792 23.8561 58.2018 23.5392 58.621 23.218C58.9113 23.0061 58.9113 23.0061 59.2074 22.7898C59.3745 22.6642 59.5417 22.5386 59.7139 22.4093C60.3282 22.1409 60.3282 22.1409 62.3901 22.1409C62.4873 24.9598 62.5845 27.7788 62.6847 30.6832C64.5611 30.7561 64.5611 30.7561 66.4377 30.824C68.5014 30.9133 70.329 31.2208 72.4052 31.5669C72.4052 26.5122 72.4052 21.4575 72.4052 16.2496C63.3651 16.2496 54.325 16.2496 45.0109 16.2496C44.9137 20.0406 44.8165 23.8317 44.7163 27.7376C43.0334 27.7436 41.3506 27.7497 39.6167 27.756C39.0865 27.7586 38.5563 27.7613 38.0101 27.7641C37.5894 27.765 37.1688 27.7657 36.7482 27.7663C36.421 27.7686 36.421 27.7686 36.0873 27.7709C35.1519 27.771 34.4173 27.7411 33.5229 27.443C33.5156 27.1144 33.5082 26.7858 33.5006 26.4472C33.4729 25.2323 33.4434 24.0175 33.4133 22.8027C33.4005 22.2761 33.3882 21.7495 33.3764 21.2229C33.3595 20.4676 33.3407 19.7123 33.3216 18.9571C33.3167 18.7202 33.3117 18.4833 33.3067 18.2392C33.3779 17.1549 33.3779 17.1549 32.9338 16.2496C32.0821 16.2216 31.2375 16.2126 30.3857 16.2162C30.1141 16.2161 29.8425 16.2161 29.5627 16.2161C28.6793 16.2163 27.7959 16.2185 26.9125 16.2208C26.3689 16.2213 25.8252 16.2216 25.2815 16.2217C23.2604 16.2233 21.2393 16.2274 19.2182 16.2312C12.4472 16.2403 12.4472 16.2403 5.53947 16.2496ZM57.3273 27.9585C56.0996 28.9216 54.8606 29.8283 53.5532 30.6832C51.6914 31.9648 49.8525 33.2793 48.0168 34.5978C46.706 35.5379 45.3784 36.4508 44.0374 37.3477C43.7903 37.5482 43.7903 37.5482 43.5381 37.7527C43.5381 37.9471 43.5381 38.1415 43.5381 38.3418C44.1729 38.8393 44.8077 39.303 45.4711 39.7594C45.8336 40.0129 46.196 40.2664 46.5585 40.52C46.7397 40.6451 46.9208 40.7703 47.1075 40.8993C47.676 41.2973 48.234 41.7081 48.793 42.1194C49.6164 42.8159 49.6164 42.8159 50.313 42.7603C50.313 42.9547 50.313 43.1491 50.313 43.3494C50.8083 43.7015 51.3212 44.029 51.8411 44.3435C52.9724 45.0311 53.9986 45.7559 55.026 46.5896C55.7315 47.114 56.4461 47.6254 57.1616 48.136C57.3492 48.2712 57.5368 48.4064 57.73 48.5457C58.5171 49.2274 58.5171 49.2274 59.4445 49.5352C59.4555 49.2588 59.4555 49.2588 59.4668 48.9767C59.5009 48.1441 59.5371 47.3116 59.5733 46.4791C59.5849 46.189 59.5965 45.8989 59.6084 45.6C59.6269 45.1842 59.6269 45.1842 59.6458 44.7601C59.6566 44.504 59.6674 44.2479 59.6785 43.9841C59.739 43.3494 59.739 43.3494 60.0336 42.7603C65.9915 42.5171 70.9106 43.7901 75.5833 47.7218C79.3388 51.3844 81.4783 56.68 81.5849 61.8495C81.6066 63.8033 81.5231 65.6259 80.9475 67.5035C80.8359 67.8857 80.8359 67.8857 80.722 68.2756C80.573 68.779 80.421 69.2816 80.2652 69.7829C80.0804 70.3944 79.9185 71.0064 79.7693 71.6274C79.5749 71.6274 79.3805 71.6274 79.1802 71.6274C78.7119 72.2218 78.7119 72.2218 78.2597 72.9529C78.1009 73.199 77.9422 73.445 77.7787 73.6986C77.6579 73.8899 77.5372 74.0813 77.4128 74.2785C77.51 74.4729 77.6072 74.6673 77.7074 74.8676C79.2141 73.8133 80.397 72.7742 81.5367 71.3328C81.7311 71.2356 81.9255 71.1384 82.1258 71.0383C82.1258 70.8439 82.1258 70.6495 82.1258 70.4492C82.3202 70.4492 82.5146 70.4492 82.7149 70.4492C86.3305 65.7668 87.9596 59.5271 87.3359 53.6798C86.8924 50.6311 85.9407 47.8251 84.4823 45.1168C84.2879 45.1168 84.0935 45.1168 83.8932 45.1168C83.6016 44.2419 83.6016 44.2419 83.304 43.3494C83.1096 43.3494 82.9152 43.3494 82.7149 43.3494C82.6834 43.1747 82.6518 43 82.6193 42.8199C82.3936 42.0839 82.1289 41.762 81.5931 41.2161C81.4231 41.0427 81.2531 40.8694 81.078 40.6908C80.8952 40.511 80.7124 40.3312 80.5241 40.146C80.3368 39.9611 80.1494 39.7762 79.9564 39.5857C78.539 38.2185 77.1409 37.1239 75.3509 36.2799C75.0866 36.1485 74.8223 36.0171 74.55 35.8818C70.3889 33.969 66.0134 33.779 61.5106 33.6753C60.9173 33.6288 60.9173 33.6288 60.0336 33.3343C59.6793 32.6257 59.6792 32.1255 59.6458 31.3344C59.6335 31.0573 59.6211 30.7801 59.6084 30.4945C59.5968 30.2044 59.5853 29.9143 59.5733 29.6154C59.5606 29.323 59.5479 29.0306 59.5348 28.7294C59.5035 28.0061 59.4734 27.2827 59.4445 26.5593C58.7286 26.5593 57.8962 27.5119 57.3273 27.9585ZM75.94 53.6591C75.8428 59.4914 75.7456 65.3238 75.6454 71.3328C77.86 69.1183 78.5836 65.2684 78.6647 62.2014C78.5877 59.1239 77.798 56.1364 75.94 53.6591Z" fill="url(#paint0_linear_214_832)"/>
<path d="M8.19055 56.8993C14.1201 56.8993 20.0496 56.8993 26.1589 56.8993C26.1589 57.9686 26.1589 59.0378 26.1589 60.1395C20.2293 60.1395 14.2998 60.1395 8.19055 60.1395C8.19055 59.0702 8.19055 58.001 8.19055 56.8993Z" fill="url(#paint1_linear_214_832)"/>
<path d="M8.19055 62.7907C10.4898 62.784 12.7891 62.7786 15.0884 62.7754C16.156 62.7739 17.2235 62.7718 18.291 62.7684C19.3205 62.7653 20.3499 62.7635 21.3794 62.7627C21.965 62.7619 22.5507 62.7596 23.1363 62.7573C23.4901 62.7573 23.8439 62.7573 24.2085 62.7572C24.6785 62.7563 24.6785 62.7563 25.1579 62.7552C25.8643 62.7907 25.8643 62.7907 26.1589 63.0852C26.1877 63.5263 26.1971 63.9688 26.1957 64.4108C26.1968 64.7707 26.1968 64.7707 26.198 65.138C26.1589 65.7363 26.1589 65.7363 25.8643 66.0309C25.313 66.0585 24.7605 66.0655 24.2085 66.0643C23.8547 66.0643 23.5008 66.0643 23.1363 66.0642C22.7512 66.0627 22.3662 66.0612 21.9694 66.0596C21.5736 66.0591 21.1778 66.0587 20.7819 66.0584C19.7383 66.0572 18.6948 66.0543 17.6512 66.0511C16.587 66.0481 15.5228 66.0467 14.4586 66.0452C12.3693 66.0421 10.2799 66.0369 8.19055 66.0309C8.19055 64.9616 8.19055 63.8923 8.19055 62.7907Z" fill="url(#paint2_linear_214_832)"/>
<defs>
<linearGradient id="paint0_linear_214_832" x1="4.60085" y1="121.168" x2="93.0126" y2="117.903" gradientUnits="userSpaceOnUse">
<stop offset="0.22" stop-color="#0B271B"/>
<stop offset="0.54526" stop-color="#204D36"/>
<stop offset="0.846622" stop-color="#0B271B"/>
</linearGradient>
<linearGradient id="paint1_linear_214_832" x1="8.92519" y1="61.6712" x2="26.0878" y2="58.4452" gradientUnits="userSpaceOnUse">
<stop offset="0.22" stop-color="#0B271B"/>
<stop offset="0.54526" stop-color="#204D36"/>
<stop offset="0.846622" stop-color="#0B271B"/>
</linearGradient>
<linearGradient id="paint2_linear_214_832" x1="8.92679" y1="67.6288" x2="26.1485" y2="64.4522" gradientUnits="userSpaceOnUse">
<stop offset="0.22" stop-color="#0B271B"/>
<stop offset="0.54526" stop-color="#204D36"/>
<stop offset="0.846622" stop-color="#0B271B"/>
</linearGradient>
</defs>
</svg>
