<svg width="83" height="82" viewBox="0 0 83 82" fill="none" xmlns="http://www.w3.org/2000/svg">
<path d="M9.44586 0.277834C9.6565 0.2759 9.86714 0.273966 10.0842 0.271973C10.7874 0.267189 11.4903 0.272112 12.1936 0.277039C12.6988 0.275638 13.204 0.273653 13.7092 0.271129C15.0795 0.266082 16.4498 0.269608 17.8202 0.27497C19.2547 0.279437 20.6893 0.277034 22.1238 0.275646C24.5328 0.274414 26.9418 0.278739 29.3508 0.286357C32.1354 0.295095 34.9199 0.295091 37.7045 0.290388C40.3839 0.286062 43.0633 0.287899 45.7427 0.292551C46.8826 0.294424 48.0226 0.294143 49.1626 0.29213C50.5051 0.290041 51.8476 0.293349 53.1902 0.300813C53.6827 0.302689 54.1753 0.302716 54.6678 0.300754C55.3406 0.298383 56.013 0.302735 56.6857 0.308782C56.8803 0.306536 57.0749 0.304289 57.2754 0.301974C58.6388 0.32457 59.4097 0.690065 60.4631 1.53952C63.6216 5.64764 64.5884 11.3421 65.4212 16.3286C65.4666 16.5908 65.5121 16.8529 65.559 17.123C66.3982 22.3835 66.2151 27.755 66.1617 33.0629C66.1535 33.9412 66.1487 34.8194 66.1442 35.6978C66.1405 35.963 66.1369 36.2282 66.1331 36.5015C66.1075 38.577 66.1075 38.577 66.7331 40.5227C68.2481 41.5544 70.19 41.9395 71.9425 42.3969C72.4625 42.5374 72.9826 42.678 73.5026 42.8186C74.3122 43.0351 75.1222 43.2505 75.9325 43.4645C76.7217 43.6737 77.5097 43.887 78.2977 44.1007C78.5394 44.1632 78.7811 44.2258 79.0301 44.2902C79.2567 44.352 79.4834 44.4139 79.7169 44.4777C79.9148 44.5301 80.1126 44.5825 80.3164 44.6365C81.1208 44.9732 81.6551 45.3565 82.2719 45.9749C82.4394 46.7099 82.4394 46.7099 82.4353 47.5603C82.4369 47.88 82.4386 48.1996 82.4403 48.529C82.4323 49.0469 82.4323 49.0469 82.4241 49.5753C82.4235 49.9332 82.4229 50.291 82.4222 50.6597C82.4205 51.419 82.4144 52.1781 82.4046 52.9373C82.3924 53.8983 82.3883 54.8592 82.3873 55.8202C82.386 56.5685 82.3818 57.3168 82.3767 58.065C82.3731 58.5878 82.3709 59.1106 82.3686 59.6334C82.3035 64.5506 81.5354 68.9539 79.0005 73.2359C78.9106 73.4158 78.8206 73.5958 78.7279 73.7811C78.548 73.7811 78.3681 73.7811 78.1827 73.7811C78.1827 74.051 78.1827 74.3209 78.1827 74.599C76.0917 76.9185 73.5447 78.8186 70.8223 80.3238C70.6392 80.4331 70.4561 80.5424 70.2674 80.655C68.1358 81.9267 65.8356 81.9772 63.3968 81.5899C61.8262 81.0888 60.5233 79.9818 59.2204 79.0033C56.6819 77.3151 53.933 77.48 51.0139 77.4884C50.5265 77.4869 50.039 77.485 49.5516 77.4827C48.5056 77.4786 47.4596 77.477 46.4136 77.4774C44.758 77.4779 43.1023 77.4726 41.4467 77.4664C38.2304 77.4553 35.0141 77.4502 31.7978 77.4457C27.705 77.4396 23.6121 77.4304 19.5192 77.4164C17.8751 77.411 16.231 77.4084 14.5868 77.408C13.5621 77.4072 12.5374 77.4043 11.5127 77.4008C11.0395 77.3996 10.5663 77.3994 10.0931 77.4001C3.68178 77.4094 3.68178 77.4094 1.68157 75.6159C0.695062 74.3744 0.682939 73.0611 0.690445 71.5353C0.689402 71.3101 0.688359 71.0849 0.687284 70.8529C0.684473 70.0988 0.685556 69.3447 0.686639 68.5906C0.685453 68.0495 0.68404 67.5085 0.682416 66.9675C0.678763 65.4973 0.678609 64.027 0.679299 62.5568C0.67959 61.3274 0.678259 60.0981 0.676953 58.8687C0.673926 55.965 0.673809 53.0614 0.675457 50.1577C0.6771 47.1699 0.673759 44.1821 0.667942 41.1943C0.663124 38.6246 0.661506 36.0549 0.662391 33.4853C0.662883 31.9526 0.662185 30.42 0.658379 28.8874C0.654926 27.4431 0.655502 25.9987 0.659036 24.5544C0.659676 24.0274 0.658954 23.5004 0.656686 22.9734C0.640175 18.8348 1.09818 15.0452 2.3631 11.0809C2.43351 10.8541 2.50392 10.6274 2.57647 10.3938C2.71933 9.93441 2.86311 9.47534 3.00788 9.01659C3.20577 8.38428 3.39688 7.75036 3.58558 7.11525C5.64885 0.214877 5.64885 0.214876 9.44586 0.277834ZM8.07938 5.27939C7.54349 6.2331 7.19569 7.17358 6.89524 8.21847C6.83855 8.4079 6.78186 8.59733 6.72346 8.7925C6.55074 9.37277 6.38202 9.95409 6.21371 10.5356C6.11054 10.8846 6.00725 11.2335 5.90383 11.5824C4.9209 14.825 4.9209 14.825 4.57805 18.1687C11.2352 18.1687 17.8923 18.1687 24.7512 18.1687C24.7512 13.4008 24.7512 8.63283 24.7512 3.7204C22.6796 3.70163 20.6082 3.68534 18.5366 3.67548C17.8319 3.67137 17.1272 3.66579 16.4225 3.65871C15.4095 3.64878 14.3966 3.64415 13.3836 3.64054C13.0686 3.63632 12.7536 3.63209 12.4291 3.62775C12.1345 3.62768 11.8399 3.62762 11.5363 3.62756C11.2778 3.62574 11.0193 3.62393 10.753 3.62206C9.52223 3.78953 8.83918 4.32138 8.07938 5.27939ZM28.5677 3.7204C28.5677 8.48835 28.5677 13.2563 28.5677 18.1687C31.6264 18.1687 34.6851 18.1687 37.8365 18.1687C37.8365 13.4008 37.8365 8.63283 37.8365 3.7204C34.7778 3.7204 31.7191 3.7204 28.5677 3.7204ZM41.653 3.7204C41.3839 4.5277 41.3452 5.05614 41.3442 5.89809C41.3436 6.1725 41.343 6.4469 41.3424 6.72963C41.3437 7.02415 41.345 7.31868 41.3463 7.62213C41.3474 7.92369 41.3485 8.22524 41.3497 8.53593C41.3634 10.6003 41.3951 12.6638 41.4656 14.727C41.4717 14.9794 41.4778 15.2319 41.4841 15.4919C41.4938 15.7252 41.5035 15.9584 41.5135 16.1987C41.5206 16.4023 41.5278 16.6059 41.5351 16.8157C41.6931 17.5331 41.8753 17.7334 42.4708 18.1687C43.3579 18.2881 43.3579 18.2881 44.3905 18.2616C44.6818 18.2617 44.6818 18.2617 44.979 18.2619C45.6207 18.2614 46.2622 18.255 46.9039 18.2486C47.3489 18.2471 47.7939 18.2459 48.2389 18.2451C49.41 18.242 50.581 18.2339 51.7521 18.2249C52.9471 18.2165 54.1422 18.2128 55.3373 18.2087C57.682 18.1999 60.0267 18.1859 62.3713 18.1687C62.3168 17.9691 62.2624 17.7694 62.2062 17.5637C62.1338 17.2984 62.0615 17.0332 61.9869 16.7599C61.9156 16.4984 61.8442 16.2369 61.7707 15.9674C61.5669 15.2191 61.3642 14.4705 61.1616 13.7218C61.0201 13.2048 60.8781 12.688 60.7357 12.1713C60.6139 11.7291 60.6139 11.7291 60.4897 11.2779C60.0043 9.54485 59.4943 7.8201 58.9467 6.10574C58.8395 5.76698 58.7323 5.42822 58.6219 5.07919C58.3413 4.19596 58.3413 4.19596 57.4644 3.7204C56.7424 3.64116 56.7424 3.64116 55.9201 3.65851C55.4453 3.65857 55.4453 3.65857 54.961 3.65863C54.6194 3.66145 54.2777 3.66426 53.9258 3.66716C53.576 3.66793 53.2262 3.6687 52.8658 3.6695C51.9367 3.67158 51.0077 3.67693 50.0787 3.68297C49.1303 3.68855 48.1819 3.69103 47.2335 3.69378C45.3733 3.69962 43.5132 3.70893 41.653 3.7204ZM4.39422 22.1406C3.90973 23.0288 3.91947 23.8245 3.92898 24.8105C3.9277 25.0132 3.92643 25.216 3.92511 25.4249C3.92185 26.1047 3.92444 26.7843 3.92701 27.4641C3.9259 27.9513 3.92444 28.4385 3.92267 28.9257C3.91893 30.2493 3.92038 31.5728 3.92298 32.8965C3.92504 34.2807 3.92313 35.6649 3.92184 37.0492C3.92035 39.3739 3.92232 41.6986 3.92621 44.0233C3.93066 46.7121 3.92922 49.401 3.92472 52.0899C3.92101 54.3972 3.92048 56.7045 3.92262 59.0118C3.9239 60.3904 3.92406 61.769 3.92137 63.1476C3.91901 64.4436 3.92064 65.7396 3.92537 67.0356C3.92645 67.5117 3.92614 67.9877 3.92434 68.4638C3.92211 69.1128 3.9249 69.7617 3.92898 70.4107C3.92716 70.5999 3.92533 70.789 3.92345 70.9838C3.93299 71.7636 4.00943 72.3656 4.32825 73.0806C5.12195 73.7308 5.75504 73.6425 6.77049 73.6396C6.96711 73.6406 7.16374 73.6415 7.36632 73.6425C8.02694 73.6443 8.68727 73.6383 9.34786 73.6323C9.82068 73.632 10.2935 73.6322 10.7663 73.6328C12.0516 73.6331 13.3368 73.6267 14.622 73.6191C15.9645 73.6123 17.3071 73.6116 18.6496 73.6103C21.1927 73.6069 23.7357 73.598 26.2787 73.5871C29.1735 73.5749 32.0684 73.5689 34.9632 73.5634C40.9188 73.552 46.8744 73.5328 52.83 73.5085C52.7026 73.1233 52.575 72.7381 52.4472 72.3529C52.3762 72.1384 52.3051 71.9239 52.2319 71.7029C52.0286 71.1035 51.8147 70.5097 51.5937 69.9167C51.525 69.7303 51.4563 69.5438 51.3855 69.3518C51.2476 68.979 51.1078 68.607 50.9659 68.2358C49.8917 65.2893 49.7412 62.2815 49.7205 59.171C49.7182 58.8978 49.7182 58.8978 49.7159 58.6191C49.7078 57.6598 49.7027 56.7006 49.7003 55.7412C49.6973 54.7536 49.6841 53.7663 49.6687 52.7788C49.6586 52.0145 49.6557 51.2503 49.6549 50.486C49.6524 49.9453 49.6423 49.4047 49.632 48.8641C49.6441 46.4336 49.6441 46.4336 50.5854 45.4978C51.0217 45.3292 51.0217 45.3292 51.4669 45.1571C51.6705 45.0738 51.8741 44.9906 52.0839 44.9048C52.372 44.8236 52.372 44.8236 52.666 44.7407C52.9939 44.6458 52.9939 44.6458 53.3284 44.5489C53.5575 44.4853 53.7866 44.4218 54.0227 44.3563C54.5076 44.2159 54.9925 44.0753 55.4773 43.9346C55.7186 43.8656 55.96 43.7965 56.2086 43.7254C57.266 43.4219 58.3202 43.1089 59.3726 42.7888C59.7156 42.6865 60.0586 42.5843 60.412 42.4789C61.2507 42.1695 61.7375 41.96 62.3713 41.3406C62.5649 40.5895 62.5649 40.5895 62.5726 39.69C62.5803 39.5151 62.588 39.3401 62.596 39.1599C62.6201 38.5237 62.6331 37.888 62.6439 37.2514C62.6509 36.8654 62.6509 36.8654 62.6579 36.4716C62.686 34.6736 62.6946 32.876 62.6945 31.0778C62.6951 30.122 62.7001 29.1663 62.7052 28.2106C62.706 27.6 62.7065 26.9895 62.7068 26.379C62.7097 25.9526 62.7097 25.9526 62.7127 25.5176C62.7119 25.2526 62.711 24.9875 62.7102 24.7144C62.7106 24.4828 62.7109 24.2512 62.7113 24.0125C62.6339 23.249 62.4378 22.6724 62.0987 21.9853C61.2907 21.5812 60.5664 21.6802 59.6648 21.6817C59.4706 21.6817 59.2764 21.6816 59.0764 21.6816C58.4333 21.6818 57.7901 21.6839 57.147 21.686C56.7016 21.6865 56.2562 21.6869 55.8108 21.6872C54.6375 21.6882 53.4642 21.6909 52.2909 21.6939C51.0941 21.6967 49.8972 21.698 48.7004 21.6993C46.3512 21.7023 44.0021 21.7069 41.653 21.7127C41.4086 23.4104 41.3245 25.0761 41.2941 26.79C41.2856 27.1938 41.2856 27.1938 41.277 27.6058C41.2593 28.4584 41.2431 29.311 41.227 30.1636C41.2152 30.7446 41.2034 31.3257 41.1914 31.9068C41.1623 33.3248 41.1345 34.7429 41.1078 36.161C40.762 36.122 40.4162 36.083 40.0599 36.0428C39.8654 36.0208 39.6709 35.9989 39.4705 35.9763C38.9269 35.8884 38.9269 35.8884 38.2454 35.5987C37.2569 35.228 36.4369 35.2913 35.383 35.3431C35.1131 35.4781 35.1131 35.4781 34.8377 35.6158C34.3696 35.6356 33.9006 35.6386 33.4321 35.6328C33.1534 35.6307 32.8748 35.6286 32.5877 35.6264C31.7027 35.6158 31.7027 35.6158 30.8178 35.6051C30.5391 35.603 30.2605 35.6009 29.9734 35.5987C29.717 35.5956 29.4607 35.5924 29.1965 35.5891C28.56 35.5731 28.56 35.5731 28.0225 35.8884C27.5114 35.9437 27.5114 35.9437 26.9321 35.9565C26.7409 35.9635 26.5497 35.9706 26.3528 35.9778C26.1841 35.9483 26.0154 35.9188 25.8416 35.8884C25.2576 35.0123 25.2251 34.7624 25.2095 33.7515C25.2041 33.4841 25.1986 33.2167 25.1931 32.9413C25.1899 32.6533 25.1868 32.3653 25.1835 32.0686C25.1782 31.7733 25.173 31.478 25.1675 31.1737C25.1512 30.2293 25.1386 29.2849 25.126 28.3405C25.1156 27.7007 25.105 27.0608 25.0941 26.421C25.0679 24.8516 25.0447 23.2822 25.0238 21.7127C22.4077 21.6874 19.7916 21.668 17.1754 21.6562C15.9606 21.6505 14.746 21.6427 13.5312 21.6304C12.3593 21.6186 11.1875 21.612 10.0156 21.6092C9.56806 21.6072 9.12057 21.6032 8.67311 21.5974C8.04709 21.5895 7.4214 21.5884 6.79534 21.5889C6.2605 21.5852 6.2605 21.5852 5.71486 21.5815C4.85384 21.6287 4.85384 21.6287 4.39422 22.1406ZM28.5677 21.7127C28.5677 24.7713 28.5677 27.83 28.5677 30.9814C30.4247 31.6004 31.6436 31.9302 33.5088 31.9014C33.8192 31.9062 33.8192 31.9062 34.136 31.911C35.5253 31.9039 37.0679 31.75 38.1091 30.7088C38.1332 30.0414 38.1405 29.3816 38.1357 28.7143C38.1354 28.5377 38.1351 28.3611 38.1349 28.1792C38.1334 27.5173 38.1296 26.8555 38.1261 26.1937C38.1205 24.7149 38.1149 23.2362 38.1091 21.7127C34.9604 21.7127 31.8118 21.7127 28.5677 21.7127ZM63.2733 45.1102C63.1025 45.1621 62.9317 45.214 62.7557 45.2674C62.2123 45.433 61.6699 45.6017 61.1276 45.7705C60.7711 45.8797 60.4145 45.9886 60.0579 46.0974C59.3549 46.3121 58.6527 46.529 57.9509 46.7475C57.2607 46.9601 56.5689 47.1678 55.8757 47.3705C55.5541 47.4652 55.2325 47.5599 54.9012 47.6574C54.6134 47.7406 54.3256 47.8238 54.0291 47.9096C53.3322 48.0875 53.3322 48.0875 53.1026 48.701C53.0724 49.1497 53.0592 49.5997 53.0544 50.0494C53.0509 50.3309 53.0474 50.6123 53.0437 50.9024C53.0417 51.2087 53.0397 51.5151 53.0376 51.8307C53.0354 52.147 53.0332 52.4633 53.031 52.7891C53.0272 53.4618 53.0243 54.1344 53.0221 54.807C53.0175 55.8236 53.0055 56.8399 52.9935 57.8564C52.954 63.874 53.7564 68.9166 58.0096 73.5085C58.8853 74.3691 59.7912 75.1778 60.7357 75.962C60.984 76.1686 60.984 76.1686 61.2372 76.3795C62.7077 77.5143 64.416 78.3802 66.2901 78.4496C67.7981 77.9816 69.1616 77.2526 70.5496 76.5072C70.5496 76.3273 70.5496 76.1474 70.5496 75.962C70.7443 75.9002 70.939 75.8383 71.1396 75.7746C73.5319 74.6674 75.4731 71.8819 76.8197 69.692C76.9251 69.5233 77.0305 69.3546 77.1391 69.1808C79.2612 65.3938 79.1646 61.2084 79.1277 57.0004C79.1197 56.002 79.1221 55.0041 79.1257 54.0057C79.124 53.3695 79.1217 52.7332 79.1187 52.0969C79.1195 51.7994 79.1203 51.5018 79.1212 51.1952C79.1177 50.9192 79.1143 50.6432 79.1107 50.3589C79.1085 49.996 79.1085 49.996 79.1062 49.6258C78.9781 48.8352 78.7268 48.4637 78.1827 47.8832C77.437 47.5523 77.437 47.5523 76.5673 47.338C76.2428 47.248 75.9182 47.1581 75.5839 47.0654C75.2439 46.9754 74.9039 46.8854 74.5536 46.7928C73.8902 46.611 73.2268 46.4293 72.5633 46.2475C72.2324 46.159 71.9015 46.0704 71.5606 45.9792C70.2287 45.6144 68.9076 45.2155 67.5869 44.8121C66.0064 44.4415 64.8115 44.6369 63.2733 45.1102Z" fill="url(#paint0_linear_214_873)"/>
<path d="M72.6966 55.5846C73.3641 55.8202 73.8219 56.1597 74.3663 56.6069C74.2646 58.1847 73.9359 58.873 72.8031 59.9655C72.6736 60.0927 72.5441 60.2199 72.4106 60.3509C71.9985 60.754 71.5811 61.1509 71.1632 61.5479C70.8866 61.8162 70.6105 62.0849 70.3347 62.354C69.8244 62.851 69.3119 63.345 68.7973 63.8376C67.4593 65.1233 67.4593 65.1233 66.2051 66.489C65.4624 67.1191 64.9762 67.2189 64.0071 67.2387C62.7692 66.6375 61.8894 65.7393 60.9403 64.7681C60.7927 64.6204 60.6451 64.4726 60.493 64.3203C59.1147 62.9265 59.1147 62.9265 59.0735 62.0143C59.0767 61.793 59.0799 61.5716 59.0831 61.3435C59.0856 61.1207 59.0881 60.8979 59.0906 60.6683C59.0937 60.4975 59.0969 60.3268 59.1002 60.1508C61.1832 60.0283 62.0274 60.6568 63.5471 61.9739C63.8831 62.2739 64.2185 62.5745 64.5524 62.8769C65.4642 61.966 66.3737 61.0528 67.2817 60.138C67.6658 59.752 68.0499 59.366 68.4342 58.9801C68.6991 58.7138 68.9637 58.4474 69.2281 58.1806C69.6123 57.7931 69.9974 57.4066 70.3826 57.02C70.7251 56.6754 70.7251 56.6754 71.0744 56.3239C71.9604 55.4864 71.9604 55.4864 72.6966 55.5846Z" fill="url(#paint1_linear_214_873)"/>
<path d="M14.1781 57.1159C14.3891 57.1157 14.6 57.1154 14.8174 57.1151C15.2617 57.115 15.7059 57.1155 16.1502 57.1166C16.8255 57.1181 17.5008 57.1166 18.1762 57.1149C18.6097 57.115 19.0433 57.1154 19.4769 57.1159C19.6766 57.1154 19.8763 57.1148 20.082 57.1143C23.5492 57.1299 23.5492 57.1299 25.0239 58.5152C24.9289 59.1802 24.7471 59.6121 24.3833 60.1795C23.2214 61.0102 22.0141 60.857 20.6206 60.8505C20.1739 60.853 20.1739 60.853 19.7183 60.8556C19.0888 60.8575 18.4593 60.8567 17.8299 60.8532C16.867 60.8494 15.9049 60.8587 14.9421 60.8691C14.3303 60.8694 13.7186 60.8689 13.1068 60.8675C12.8191 60.8711 12.5314 60.8747 12.235 60.8785C10.0106 60.8502 10.0106 60.8502 9.15654 60.0038C8.99509 59.7825 8.83364 59.5611 8.6673 59.333C9.04844 58.4119 9.43848 57.929 10.303 57.4247C11.5941 57.1428 12.8625 57.1123 14.1781 57.1159Z" fill="url(#paint2_linear_214_873)"/>
<path d="M16.1298 65.2951C16.6902 65.2965 17.2505 65.2951 17.8109 65.2933C23.1856 65.2896 23.1856 65.2896 24.5127 66.1655C24.7658 66.4269 24.7658 66.4269 25.0239 66.6937C24.8706 67.5829 24.6384 68.0325 23.9334 68.6019C23.1753 68.8546 22.6875 68.9156 21.9019 68.9314C21.5347 68.9393 21.5347 68.9393 21.16 68.9474C20.0404 68.9632 18.9208 68.9765 17.8011 68.9849C17.2114 68.9908 16.6218 69.0001 16.0323 69.0129C15.1802 69.0312 14.3286 69.0387 13.4763 69.0438C13.2144 69.0514 12.9525 69.059 12.6827 69.0668C11.0468 69.0619 10.1751 68.7812 8.98275 67.644C8.6673 67.2389 8.6673 67.2389 8.6673 66.6937C10.4806 64.7634 13.6729 65.2875 16.1298 65.2951Z" fill="url(#paint3_linear_214_873)"/>
<defs>
<linearGradient id="paint0_linear_214_873" x1="3.99985" y1="120.346" x2="84.7832" y2="117.6" gradientUnits="userSpaceOnUse">
<stop offset="0.22" stop-color="#0B271B"/>
<stop offset="0.54526" stop-color="#204D36"/>
<stop offset="0.846622" stop-color="#0B271B"/>
</linearGradient>
<linearGradient id="paint1_linear_214_873" x1="59.6988" y1="72.7685" x2="74.7922" y2="72.0997" gradientUnits="userSpaceOnUse">
<stop offset="0.22" stop-color="#0B271B"/>
<stop offset="0.54526" stop-color="#204D36"/>
<stop offset="0.846622" stop-color="#0B271B"/>
</linearGradient>
<linearGradient id="paint2_linear_214_873" x1="9.33604" y1="62.6579" x2="25.1677" y2="60.3261" gradientUnits="userSpaceOnUse">
<stop offset="0.22" stop-color="#0B271B"/>
<stop offset="0.54526" stop-color="#204D36"/>
<stop offset="0.846622" stop-color="#0B271B"/>
</linearGradient>
<linearGradient id="paint3_linear_214_873" x1="9.33604" y1="70.8832" x2="25.1812" y2="68.5968" gradientUnits="userSpaceOnUse">
<stop offset="0.22" stop-color="#0B271B"/>
<stop offset="0.54526" stop-color="#204D36"/>
<stop offset="0.846622" stop-color="#0B271B"/>
</linearGradient>
</defs>
</svg>
