<svg width="108" height="73" viewBox="0 0 108 73" fill="none" xmlns="http://www.w3.org/2000/svg">
<path d="M50.9097 15.493L50.9097 15.493C46.9528 15.4993 42.9959 15.5092 39.0389 15.522C39.0544 15.6195 39.0699 15.717 39.0852 15.8145L39.0984 15.8986L39.102 15.9838C39.3697 22.282 38.5023 28.3956 34.0198 33.6438L33.9912 33.6773L33.9607 33.709C29.7407 38.1002 24.2704 41.1661 17.9312 41.4237L17.9071 41.4247L17.883 41.4249L16.8879 41.4333V41.437V41.4563V41.4756V41.4949V41.5142V41.5335V41.5527V41.572V41.5913V41.6106V41.6298V41.6491V41.6684V41.6876V41.7069V41.7261V41.7454V41.7647V41.7839V41.8032V41.8224V41.8417V41.8609V41.8802V41.8994V41.9187V41.9379V41.9571V41.9764V41.9956V42.0148V42.0341V42.0533V42.0725V42.0918V42.111V42.1302V42.1494V42.1686V42.1879V42.2071V42.2263V42.2455V42.2647V42.2839V42.3031V42.3223V42.3415V42.3607V42.3799V42.3991V42.4183V42.4375V42.4567V42.4759V42.4951V42.5143V42.5335V42.5527V42.5718V42.591V42.6102V42.6294V42.6486V42.6677V42.6869V42.7061V42.7253V42.7444V42.7636V42.7828V42.8019V42.8211V42.8403V42.8594V42.8786V42.8977V42.9169V42.936V42.9552V42.9743V42.9935V43.0126V43.0318V43.0509V43.0701V43.0892V43.1083V43.1275V43.1466V43.1658V43.1849V43.204V43.2232V43.2423V43.2614V43.2805V43.2997V43.3188V43.3379V43.357V43.3761V43.3953V43.4144V43.4335V43.4526V43.4717V43.4908V43.5099V43.529V43.5481V43.5672V43.5864V43.6055V43.6246V43.6437V43.6627V43.6818V43.7009V43.72V43.7391V43.7582V43.7773V43.7964V43.8155V43.8346V43.8536V43.8727V43.8918V43.9109V43.93V43.949V43.9681V43.9872V44.0063V44.0253V44.0444V44.0635V44.0825V44.1016V44.1207V44.1397V44.1588V44.1779V44.1969V44.216V44.235V44.2541V44.2731V44.2922V44.3113V44.3303V44.3494V44.3684V44.3875V44.4065V44.4255V44.4446V44.4636V44.4827V44.5017V44.5208V44.5398V44.5588V44.5779V44.5969V44.6159V44.635V44.654V44.673V44.692V44.7111V44.7301V44.7491V44.7681V44.7872V44.8062V44.8252V44.8442V44.8633V44.8823V44.9013V44.9203V44.9393V44.9583V44.9773V44.9963V45.0154V45.0344V45.0534V45.0724V45.0914V45.1104V45.1294V45.1484V45.1674V45.1864V45.2054V45.2244V45.2434V45.2624V45.2814V45.3004V45.3194V45.3384V45.3573V45.3763V45.3953V45.4143V45.4333V45.4523V45.4713V45.4902V45.5092V45.5282V45.5472V45.5662V45.5851V45.6041V45.6231V45.6421V45.6611V45.68V45.699V45.718V45.7369V45.7559V45.7749V45.7939V45.8128V45.8318V45.8508V45.8697V45.8887V45.9076V45.9266V45.9456V45.9645V45.9835V46.0024V46.0214V46.0404V46.0593V46.0783V46.0972V46.1162V46.1351V46.1541V46.173V46.192V46.2109V46.2299V46.2488V46.2678V46.2867V46.3057V46.3246V46.3436V46.3625V46.3814V46.4004V46.4193V46.4383V46.4572V46.4762V46.4951V46.514V46.533V46.5519V46.5708V46.5898V46.6087V46.6276V46.6466V46.6655V46.6844V46.7034V46.7223V46.7412V46.7601V46.7791V46.798V46.8169V46.8358V46.8548V46.8737V46.8926V46.9115V46.9305V46.9494V46.9683V46.9872V47.0061V47.0251V47.044V47.0629V47.0818V47.1007V47.1196V47.1386V47.1575V47.1764V47.1953V47.2142V47.2331V47.252V47.271V47.2899V47.3088V47.3277V47.3466V47.3655V47.3844V47.4033V47.4222V47.4411V47.46V47.4789V47.4978V47.5168V47.5357V47.5546V47.5735V47.5924V47.6113V47.6302V47.6491V47.668V47.6869V47.7058V47.7247V47.7436V47.7625V47.7814V47.8003V47.8191V47.838V47.8569V47.8758V47.8947V47.9136V47.9325V47.9514V47.9703V47.9892V48.0081V48.027V48.0459V48.0648V48.0837V48.1025V48.1214V48.1403V48.1592V48.1781V48.197V48.2073H17.0013H17.1165H17.2316H17.3467H17.4618H17.5769H17.692H17.8071H17.9221H18.0372H18.1522H18.2672H18.3823H18.4973H18.6122H18.7272H18.8422H18.9571H19.072H19.187H19.3019H19.4168H19.5317H19.6465H19.7614H19.8762H19.9911H20.1059H20.2207H20.3355H20.4503H20.5651H20.6798H20.7946H20.9093H21.024H21.1387H21.2534H21.3681H21.4828H21.5975H21.7121H21.8268H21.9414H22.056H22.1706H22.2852H22.3998H22.5144H22.6289H22.7435H22.858H22.9725H23.0871H23.2016H23.3161H23.4305H23.545H23.6595H23.7739H23.8883H24.0028H24.1172H24.2316H24.346H24.4603H24.5747H24.6891H24.8034H24.9177H25.0321H25.1464H25.2607H25.3749H25.4892H25.6035H25.7177H25.832H25.9462H26.0604H26.1747H26.2889H26.4031H26.5172H26.6314H26.7456H26.8597H26.9738H27.088H27.2021H27.3162H27.4303H27.5444H27.6584H27.7725H27.8866H28.0006H28.1146H28.2286H28.3427H28.4567H28.5707H28.6846H28.7986H28.9126H29.0265H29.1404H29.2544H29.3683H29.4822H29.5961H29.71H29.8239H29.9377H30.0516H30.1654H30.2793H30.3931H30.5069H30.6207H30.7345H30.8483H30.9621H31.0759H31.1896H31.3034H31.4171H31.5309H31.6446H31.7583H31.872H31.9857H32.0994H32.213H32.3267H32.4404H32.554H32.6677H32.7813H32.8949H33.0085H33.1221H33.2357H33.3493H33.4628H33.5764H33.69H33.8035H33.917H34.0306H34.1441H34.2576H34.3711H34.4846H34.5981H34.7115H34.825H34.9385H35.0519H35.1653H35.2788H35.3922H35.5056H35.619H35.7324H35.8458H35.9592H36.0725H36.1859H36.2992H36.4126H36.5259H36.6392H36.7525H36.8659H36.9792H37.0924H37.2057H37.319H37.4323H37.5455H37.6588H37.772H37.8853H37.9985H38.1117H38.2249H38.3381H38.4513H38.5645H38.6777H38.7908H38.904H39.0171H39.1303H39.2434H39.3566H39.4697H39.5828H39.6959H39.809H39.9221H40.0352H40.1482H40.2613H40.3744H40.4874H40.6005H40.7135H40.8265H40.9396H41.0526H41.1656H41.2786H41.3916H41.5046H41.6175H41.7305H41.8435H41.9564H42.0694H42.1823H42.2953H42.4082H42.5211H42.634H42.7469H42.8598H42.9727H43.0856H43.1985H43.3113H43.4242H43.5371H43.6499H43.7628H43.8756H43.9884H44.1013H44.2141H44.3269H44.4397H44.5525H44.6653H44.7781H44.8908H45.0036H45.1164H45.2291H45.3419H45.4546H45.5674H45.6801H45.7928H45.9055H46.0182H46.131H46.2437H46.3563H46.469H46.5817H46.6944H46.8071H46.9197H47.0324H47.145H47.2577H47.3703H47.483H47.5956H47.7082H47.8208H47.9334H48.046H48.1586H48.2712H48.3838H48.4964H48.609H48.7215H48.8341H48.9466H49.0592H49.1717H49.2843H49.3968H49.5093H49.6219H49.7344H49.8469H49.9594H50.0719H50.1844H50.2969H50.4094H50.5219H50.6344H50.7468H50.8593H50.9717H51.0842H51.1967H51.3091H51.4215H51.534H51.6464H51.7588H51.8713H51.9837H52.0961H52.2085H52.3209H52.4333H52.5457H52.6581H52.7704H52.8828H52.9952H53.1075H53.2199H53.3323H53.4446H53.557H53.6693H53.7817H53.894H54.0063H54.1186H54.231H54.3433H54.4556H54.5679H54.6802H54.7925H54.9048H55.0171H55.1294H55.2417H55.3539H55.4662H55.5785H55.6908H55.803H55.9153H56.0275H56.1398H56.252H56.3643H56.4765H56.5887H56.701H56.8132H56.9254H57.0376H57.1499H57.2621H57.3743H57.4865H57.5987H57.7109H57.8231H57.9353H58.0475H58.1596H58.2718H58.384H58.4962H58.6083H58.7205H58.8327H58.9448H59.057H59.1691H59.2813H59.3934H59.5056H59.6177H59.7298H59.842H59.9541H60.0662H60.1784H60.2905H60.4026H60.5147H60.6268H60.7389H60.851H60.9631H61.0752H61.1873H61.2994H61.4115H61.5236H61.6357H61.7478H61.8599H61.9719H62.084H62.1961H62.3082H62.4202H62.5323H62.6444H62.7564H62.8685H62.9805H63.0926H63.2046H63.3167H63.4287H63.5408H63.6528H63.7649H63.8769H63.9889H64.101H64.213H64.325H64.4371H64.5491H64.6611H64.7731H64.8852H64.9972H65.1092H65.2212H65.3332H65.4452H65.5572H65.6692H65.7812H65.8932H66.0052H66.1172H66.2292H66.3412H66.4532H66.5652H66.6772H66.7892H66.9012H67.0132H67.1252H67.2371H67.3491H67.4611H67.5731H67.6851H67.797H67.909H68.021H68.133H68.2449H68.3569H68.4689H68.5809H68.6928H68.8048H68.9168H69.0287H69.1407H69.2526H69.3646H69.4766H69.5885H69.7005H69.8124H69.9244H70.0364H70.1483H70.2603H70.3722H70.4842H70.5961H70.7081H70.82H70.932H71.0439H71.1559H71.2678H71.3798H71.4917H71.6037H71.7156H71.7883L71.846 32.2408L71.846 32.2387C71.8474 31.9571 71.8489 31.6755 71.8503 31.3939C71.862 29.0963 71.8737 26.8014 71.8784 24.5065C71.8784 24.5058 71.8784 24.5052 71.8784 24.5046L73.3784 24.5077C73.379 23.8133 73.38 23.1188 73.3815 22.4244L50.9097 15.493ZM50.9097 15.493C53.0214 15.4895 55.1336 15.4847 57.246 15.4771C59.2806 15.4698 61.3155 15.4657 63.3506 15.464L63.3517 15.464M50.9097 15.493L63.3517 15.464M63.3517 15.464C64.1312 15.4627 64.9106 15.4603 65.69 15.4567L63.3517 15.464Z" stroke="url(#paint0_linear_214_730)" stroke-width="3"/>
<mask id="path-2-inside-1_214_730" fill="white">
<path fill-rule="evenodd" clip-rule="evenodd" d="M79.5369 23.6612L78.5661 23.6808C77.6016 23.6966 77.0566 23.7055 76.6348 23.938C76.0869 24.2401 75.7471 24.9196 74.9659 26.4821V51.3904H15.0513C15.0513 52.6789 14.8994 54.0296 14.7466 55.3872C14.3799 58.6459 14.0088 61.9442 15.7245 64.5178L16.6043 64.6324L17.7047 64.6164L18.8946 64.6065L20.1424 64.5809C21.5871 64.565 23.0316 64.547 24.4761 64.5178C24.579 63.8431 24.6924 63.17 24.8127 62.4982C26.0786 59.1735 27.7971 56.933 30.9556 55.2823C33.4028 54.3093 35.9531 54.4218 38.4029 55.3244C40.9184 56.4817 42.8511 58.2776 43.9988 60.8152L44.672 64.5178H80.3515C80.3817 64.3818 80.4118 64.2458 80.4418 64.1097C80.7275 62.8164 81.014 61.5194 81.4454 60.2682C82.9454 57.3754 84.9807 55.8077 88.0933 54.7564C91.1244 54.3798 93.8847 54.7579 96.428 56.5117C98.9021 58.4491 99.9529 60.8353 100.459 63.8879L100.547 64.5178C101.135 64.5306 101.722 64.5427 102.309 64.5506L103.03 64.5598C103.897 64.5806 104.728 64.5666 105.596 64.5178C107.223 62.8913 107.768 60.989 107.846 58.7354L107.854 57.8502C107.865 57.2101 107.874 56.57 107.882 55.9299C107.884 54.9366 107.889 53.9457 107.919 52.9528C108.048 48.6759 107.657 45.5282 105.369 41.8587C104.686 40.7981 104.102 39.7132 103.542 38.5837L103.261 38.0106C102.651 36.7976 102.055 35.5792 101.482 34.3479L101.048 33.4073C100.755 32.7751 100.462 32.1427 100.169 31.51C99.3337 29.6512 98.5305 27.8753 97.1105 26.3856C95.1236 24.4831 93.4229 23.5604 90.6469 23.5432L89.6106 23.5684C88.8734 23.571 88.1362 23.5745 87.399 23.5789C86.2466 23.6002 85.0947 23.6211 83.942 23.6276C83.1843 23.6302 82.4265 23.6346 81.6688 23.6409L80.5855 23.6525L79.5369 23.6612ZM83.088 26.9408L82.3159 26.9433C79.9791 26.9006 78.5688 27.339 78.1684 29.8728L78.1767 31.0167L78.1807 32.2704L78.2057 33.5714C78.206 33.9457 78.1962 34.3268 78.1863 34.711C78.1486 36.1763 78.1097 37.687 78.6304 39.0364C78.8565 39.3819 79.0142 39.6231 79.2127 39.8239C79.6713 40.2878 80.3476 40.5365 82.5861 41.3599C84.2835 41.9699 85.9738 42.593 87.6475 43.2657C89.3614 43.9548 91.0774 44.6373 92.8017 45.2998L93.9837 45.7521C96.6815 46.8204 98.9662 47.6363 101.894 47.3509L102.28 46.7975C102.417 46.4189 102.489 46.2211 102.496 46.021C102.503 45.8021 102.433 45.5805 102.286 45.1163L101.769 44.0888L101.191 42.9132C100.749 42.0353 100.319 41.1534 99.9004 40.2641C99.4498 39.3057 98.996 38.349 98.5377 37.3943C98.3027 36.9055 98.068 36.4166 97.8336 35.9276C97.4817 35.1848 97.1298 34.4421 96.7738 33.7012L96.4333 32.9942C95.6334 31.2913 94.7879 29.8857 93.4788 28.5014C92.1597 27.4016 91.1956 26.9991 89.4688 26.9593L88.7323 26.9643C88.2081 26.9601 87.6839 26.9568 87.1597 26.9545C86.3401 26.961 85.5218 26.9656 84.7023 26.9541C84.1642 26.9457 83.6261 26.9412 83.088 26.9408Z"/>
</mask>
<path d="M78.5661 23.6808L78.6151 26.6804L78.6267 26.6802L78.5661 23.6808ZM79.5369 23.6612L79.5121 20.6613L79.4942 20.6615L79.4763 20.6618L79.5369 23.6612ZM76.6348 23.938L75.1863 21.3109L75.1863 21.3109L76.6348 23.938ZM74.9659 26.4821L72.2826 25.1404L71.9659 25.7739V26.4821H74.9659ZM74.9659 51.3904V54.3904H77.9659V51.3904H74.9659ZM15.0513 51.3904V48.3904H12.0513V51.3904H15.0513ZM14.7466 55.3872L11.7654 55.0517L14.7466 55.3872ZM15.7245 64.5178L13.2284 66.1819L13.9848 67.3164L15.3369 67.4926L15.7245 64.5178ZM16.6043 64.6324L16.2167 67.6072L16.4314 67.6352L16.648 67.6321L16.6043 64.6324ZM17.7047 64.6164L17.6798 61.6165L17.6704 61.6165L17.661 61.6167L17.7047 64.6164ZM18.8946 64.6065L18.9195 67.6064L18.9379 67.6063L18.9562 67.6059L18.8946 64.6065ZM20.1424 64.5809L20.1094 61.581L20.0951 61.5812L20.0807 61.5815L20.1424 64.5809ZM24.4761 64.5178L24.5367 67.5171L27.061 67.4661L27.4418 64.9702L24.4761 64.5178ZM24.8127 62.4982L22.0091 61.4306L21.9092 61.6929L21.8597 61.9692L24.8127 62.4982ZM30.9556 55.2823L29.8472 52.4946L29.7034 52.5518L29.5661 52.6235L30.9556 55.2823ZM38.4029 55.3244L39.6567 52.599L39.5501 52.5499L39.44 52.5094L38.4029 55.3244ZM43.9988 60.8152L46.9504 60.2785L46.8844 59.9152L46.7322 59.5788L43.9988 60.8152ZM44.672 64.5178L41.7204 65.0544L42.1683 67.5178H44.672V64.5178ZM80.3515 64.5178V67.5178H82.758L83.2801 65.1685L80.3515 64.5178ZM80.4418 64.1097L83.3712 64.7569L83.3712 64.7568L80.4418 64.1097ZM81.4454 60.2682L78.7822 58.8872L78.681 59.0824L78.6093 59.2902L81.4454 60.2682ZM88.0933 54.7564L87.7234 51.7793L87.4215 51.8168L87.1333 51.9141L88.0933 54.7564ZM96.428 56.5117L98.2777 54.1497L98.206 54.0936L98.1311 54.042L96.428 56.5117ZM100.459 63.8879L103.43 63.4724L103.425 63.4346L103.419 63.3969L100.459 63.8879ZM100.547 64.5178L97.5764 64.9333L97.9299 67.4612L100.482 67.517L100.547 64.5178ZM102.309 64.5506L102.269 67.5504L102.271 67.5504L102.309 64.5506ZM103.03 64.5598L103.102 61.5607L103.085 61.5603L103.068 61.5601L103.03 64.5598ZM105.596 64.5178L105.765 67.513L106.908 67.4488L107.718 66.6391L105.596 64.5178ZM107.846 58.7354L110.844 58.8398L110.846 58.8007L110.846 58.7616L107.846 58.7354ZM107.854 57.8502L104.854 57.7993L104.854 57.8116L104.854 57.824L107.854 57.8502ZM107.882 55.9299L110.882 55.9676L110.882 55.9513L110.882 55.9351L107.882 55.9299ZM107.919 52.9528L104.92 52.8621L104.92 52.8644L107.919 52.9528ZM105.369 41.8587L107.915 40.2712L107.903 40.253L107.892 40.2348L105.369 41.8587ZM103.542 38.5837L100.847 39.9026L100.851 39.9097L100.854 39.9168L103.542 38.5837ZM103.261 38.0106L105.956 36.6917L105.949 36.677L105.941 36.6623L103.261 38.0106ZM101.482 34.3479L98.7571 35.6034L98.7617 35.6133L101.482 34.3479ZM101.048 33.4073L103.773 32.1519L103.769 32.1438L101.048 33.4073ZM100.169 31.51L97.4322 32.7394L97.4391 32.7548L97.4462 32.7701L100.169 31.51ZM97.1105 26.3856L99.2821 24.3157L99.2348 24.2661L99.1853 24.2187L97.1105 26.3856ZM90.6469 23.5432L90.6654 20.5433L90.6197 20.543L90.574 20.5441L90.6469 23.5432ZM89.6106 23.5684L89.6211 26.5684L89.6523 26.5683L89.6835 26.5675L89.6106 23.5684ZM87.399 23.5789L87.3811 20.579L87.3624 20.5791L87.3437 20.5794L87.399 23.5789ZM83.942 23.6276L83.9523 26.6276L83.9589 26.6275L83.942 23.6276ZM81.6688 23.6409L81.6436 20.641L81.6366 20.6411L81.6688 23.6409ZM80.5855 23.6525L80.6103 26.6525L80.6177 26.6524L80.5855 23.6525ZM82.3159 26.9433L82.2611 29.9428L82.2933 29.9434L82.3254 29.9433L82.3159 26.9433ZM83.088 26.9408L83.0898 23.9408L83.0784 23.9409L83.088 26.9408ZM78.1684 29.8728L75.2051 29.4046L75.1666 29.6482L75.1684 29.8948L78.1684 29.8728ZM78.1767 31.0167L81.1768 31.0072L81.1767 30.9947L78.1767 31.0167ZM78.1807 32.2704L75.1807 32.2798L75.1808 32.3039L75.1812 32.328L78.1807 32.2704ZM78.2057 33.5714L81.2057 33.5684L81.2056 33.5411L81.2051 33.5138L78.2057 33.5714ZM78.1863 34.711L81.1853 34.7883V34.7883L78.1863 34.711ZM78.6304 39.0364L75.8316 40.1165L75.946 40.4128L76.1198 40.6785L78.6304 39.0364ZM79.2127 39.8239L77.0792 41.933L77.0792 41.933L79.2127 39.8239ZM82.5861 41.3599L81.5505 44.1755L81.5609 44.1793L81.5714 44.1831L82.5861 41.3599ZM87.6475 43.2657L88.7666 40.4823L88.7663 40.4821L87.6475 43.2657ZM92.8017 45.2998L91.7258 48.1002L91.7296 48.1017L92.8017 45.2998ZM93.9837 45.7521L95.0883 42.9628L95.0721 42.9564L95.0559 42.9502L93.9837 45.7521ZM101.894 47.3509L102.185 50.3368L103.562 50.2026L104.353 49.0685L101.894 47.3509ZM102.28 46.7975L104.74 48.515L104.967 48.1902L105.102 47.8176L102.28 46.7975ZM102.496 46.021L105.494 46.1236V46.1235L102.496 46.021ZM102.286 45.1163L105.147 44.2125L105.074 43.9824L104.966 43.7668L102.286 45.1163ZM101.769 44.0888L99.077 45.4131L99.0832 45.4257L99.0895 45.4382L101.769 44.0888ZM101.191 42.9132L103.882 41.5889L103.876 41.5767L103.87 41.5645L101.191 42.9132ZM99.9004 40.2641L97.1853 41.5403L97.1859 41.5416L99.9004 40.2641ZM98.5377 37.3943L101.242 36.096L101.242 36.0946L98.5377 37.3943ZM97.8336 35.9276L95.1224 37.212L95.1284 37.2245L97.8336 35.9276ZM96.7738 33.7012L99.4778 32.4019L99.4767 32.3995L96.7738 33.7012ZM96.4333 32.9942L93.7179 34.2696L93.7241 34.2828L93.7304 34.2959L96.4333 32.9942ZM93.4788 28.5014L95.6586 26.4402L95.5365 26.311L95.3999 26.1972L93.4788 28.5014ZM89.4688 26.9593L89.5379 23.9601L89.493 23.959L89.4482 23.9594L89.4688 26.9593ZM88.7323 26.9643L88.7078 29.9642L88.7303 29.9644L88.7529 29.9643L88.7323 26.9643ZM87.1597 26.9545L87.173 23.9545L87.1544 23.9544L87.1357 23.9546L87.1597 26.9545ZM84.7023 26.9541L84.6555 29.9537L84.6601 29.9538L84.7023 26.9541ZM78.6267 26.6802L79.5974 26.6606L79.4763 20.6618L78.5056 20.6814L78.6267 26.6802ZM78.0833 26.5651C77.8098 26.7159 77.6133 26.7221 77.7174 26.7109C77.7697 26.7053 77.8607 26.6987 78.0204 26.6932C78.1809 26.6876 78.3665 26.6845 78.6151 26.6804L78.5172 20.6812C78.0852 20.6883 77.5519 20.6942 77.0764 20.7453C76.5615 20.8006 75.8816 20.9275 75.1863 21.3109L78.0833 26.5651ZM77.6492 27.8237C77.8481 27.426 78.0033 27.1158 78.1392 26.8551C78.276 26.5928 78.368 26.4299 78.434 26.3239C78.5721 26.1023 78.4622 26.3562 78.0833 26.5651L75.1863 21.3109C74.2595 21.8218 73.7058 22.5666 73.3417 23.1509C72.9982 23.7022 72.645 24.4157 72.2826 25.1404L77.6492 27.8237ZM77.9659 51.3904V26.4821H71.9659V51.3904H77.9659ZM15.0513 54.3904H74.9659V48.3904H15.0513V54.3904ZM17.7278 55.7226C17.8766 54.4 18.0513 52.8775 18.0513 51.3904H12.0513C12.0513 52.4804 11.9221 53.6592 11.7654 55.0517L17.7278 55.7226ZM18.2207 62.8537C17.7631 62.1673 17.5109 61.2872 17.4511 60.0631C17.3892 58.7946 17.5387 57.4029 17.7278 55.7226L11.7654 55.0517C11.5878 56.6302 11.3685 58.517 11.4583 60.3557C11.5502 62.2388 11.9702 64.2947 13.2284 66.1819L18.2207 62.8537ZM16.9919 61.6575L16.1121 61.5429L15.3369 67.4926L16.2167 67.6072L16.9919 61.6575ZM17.661 61.6167L16.5606 61.6327L16.648 67.6321L17.7483 67.6161L17.661 61.6167ZM18.8697 61.6066L17.6798 61.6165L17.7295 67.6163L18.9195 67.6064L18.8697 61.6066ZM20.0807 61.5815L18.833 61.6071L18.9562 67.6059L20.204 67.5802L20.0807 61.5815ZM24.4155 61.5184C22.9853 61.5473 21.5522 61.5652 20.1094 61.581L20.1754 67.5807C21.622 67.5648 23.0778 67.5466 24.5367 67.5171L24.4155 61.5184ZM21.8597 61.9692C21.7357 62.6613 21.618 63.3604 21.5104 64.0653L27.4418 64.9702C27.5401 64.3258 27.649 63.6786 27.7657 63.0271L21.8597 61.9692ZM29.5661 52.6235C25.638 54.6763 23.4836 57.5579 22.0091 61.4306L27.6163 63.5657C28.6736 60.789 29.9562 59.1896 32.3451 57.9411L29.5661 52.6235ZM39.44 52.5094C36.4135 51.3944 33.0898 51.2054 29.8472 52.4946L32.064 58.0701C33.7158 57.4133 35.4926 57.4493 37.3658 58.1394L39.44 52.5094ZM46.7322 59.5788C45.2532 56.3089 42.7509 54.0225 39.6567 52.599L37.149 58.0498C39.0859 58.9409 40.4489 60.2463 41.2654 62.0515L46.7322 59.5788ZM47.6236 63.9811L46.9504 60.2785L41.0472 61.3518L41.7204 65.0544L47.6236 63.9811ZM80.3515 61.5178H44.672V67.5178H80.3515V61.5178ZM77.5124 63.4626C77.4823 63.5991 77.4527 63.7332 77.4229 63.867L83.2801 65.1685C83.3108 65.0304 83.3412 64.8925 83.3712 64.7569L77.5124 63.4626ZM78.6093 59.2902C78.1124 60.7314 77.7918 62.198 77.5124 63.4626L83.3712 64.7568C83.6632 63.4349 83.9157 62.3073 84.2816 61.2462L78.6093 59.2902ZM87.1333 51.9141C83.3909 53.1782 80.6877 55.2123 78.7822 58.8872L84.1087 61.6491C85.2031 59.5385 86.5705 58.4372 89.0533 57.5986L87.1333 51.9141ZM98.1311 54.042C94.8176 51.7571 91.2578 51.3401 87.7234 51.7793L88.4632 57.7335C90.9911 57.4194 92.9519 57.7587 94.725 58.9814L98.1311 54.042ZM103.419 63.3969C102.831 59.8552 101.517 56.6862 98.2777 54.1497L94.5784 58.8737C96.2875 60.212 97.0745 61.8154 97.4998 64.379L103.419 63.3969ZM103.519 64.1022L103.43 63.4724L97.4883 64.3035L97.5764 64.9333L103.519 64.1022ZM102.35 61.5509C101.776 61.5431 101.199 61.5313 100.613 61.5185L100.482 67.517C101.071 67.5299 101.668 67.5422 102.269 67.5504L102.35 61.5509ZM103.068 61.5601L102.348 61.5509L102.271 67.5504L102.992 67.5596L103.068 61.5601ZM105.428 61.5225C104.638 61.5669 103.887 61.5795 103.102 61.5607L102.958 67.559C103.907 67.5817 104.818 67.5662 105.765 67.513L105.428 61.5225ZM104.848 58.631C104.786 60.4093 104.393 61.4788 103.475 62.3964L107.718 66.6391C110.053 64.3038 110.749 61.5688 110.844 58.8398L104.848 58.631ZM104.854 57.824L104.846 58.7091L110.846 58.7616L110.854 57.8764L104.854 57.824ZM104.882 55.8922C104.875 56.5282 104.865 57.1639 104.854 57.7993L110.854 57.9011C110.865 57.2563 110.874 56.6118 110.882 55.9676L104.882 55.8922ZM104.92 52.8644C104.889 53.9018 104.884 54.9282 104.882 55.9247L110.882 55.9351C110.884 54.9451 110.889 53.9896 110.917 53.0413L104.92 52.8644ZM102.824 43.4462C104.679 46.4213 105.04 48.9011 104.92 52.8621L110.917 53.0435C111.056 48.4507 110.636 44.635 107.915 40.2712L102.824 43.4462ZM100.854 39.9168C101.443 41.103 102.082 42.2949 102.847 43.4826L107.892 40.2348C107.291 39.3014 106.761 38.3235 106.229 37.2506L100.854 39.9168ZM100.567 39.3295L100.847 39.9026L106.236 37.2648L105.956 36.6917L100.567 39.3295ZM98.7617 35.6133C99.3509 36.8799 99.9615 38.1269 100.581 39.3589L105.941 36.6623C105.34 35.4682 104.758 34.2785 104.202 33.0826L98.7617 35.6133ZM98.3237 34.6628L98.7571 35.6034L104.206 33.0925L103.773 32.1519L98.3237 34.6628ZM97.4462 32.7701C97.7396 33.4039 98.0333 34.0375 98.3275 34.6709L103.769 32.1438C103.476 31.5127 103.184 30.8814 102.891 30.2499L97.4462 32.7701ZM94.939 28.4554C95.9504 29.5166 96.5686 30.8169 97.4322 32.7394L102.905 30.2807C102.099 28.4855 101.111 26.234 99.2821 24.3157L94.939 28.4554ZM90.6283 26.5432C91.664 26.5496 92.3489 26.7191 92.9183 26.9817C93.5194 27.2589 94.1664 27.72 95.0358 28.5524L99.1853 24.2187C98.0677 23.1486 96.8709 22.1972 95.4309 21.5331C93.9592 20.8544 92.4058 20.554 90.6654 20.5433L90.6283 26.5432ZM89.6835 26.5675L90.7198 26.5423L90.574 20.5441L89.5377 20.5693L89.6835 26.5675ZM87.4169 26.5789C88.1518 26.5745 88.8865 26.571 89.6211 26.5684L89.6001 20.5684C88.8603 20.571 88.1207 20.5746 87.3811 20.579L87.4169 26.5789ZM83.9589 26.6275C85.1337 26.6209 86.3041 26.5996 87.4544 26.5784L87.3437 20.5794C86.189 20.6007 85.0557 20.6212 83.9251 20.6276L83.9589 26.6275ZM81.694 26.6408C82.4465 26.6345 83.1993 26.6301 83.9523 26.6276L83.9317 20.6276C83.1692 20.6302 82.4065 20.6346 81.6436 20.641L81.694 26.6408ZM80.6177 26.6524L81.701 26.6407L81.6366 20.6411L80.5533 20.6527L80.6177 26.6524ZM79.5617 26.6611L80.6103 26.6524L80.5607 20.6527L79.5121 20.6613L79.5617 26.6611ZM82.3254 29.9433L83.0975 29.9408L83.0784 23.9409L82.3063 23.9433L82.3254 29.9433ZM81.1316 30.3411C81.1935 29.9493 81.2681 29.8168 81.2662 29.8202C81.2466 29.8549 81.1762 29.9437 81.0707 30.0076C80.9932 30.0545 81.0023 30.0226 81.212 29.9891C81.43 29.9542 81.7579 29.9336 82.2611 29.9428L82.3706 23.9438C81.1495 23.9215 79.4455 23.9768 77.9612 24.8762C76.2501 25.9131 75.4871 27.6201 75.2051 29.4046L81.1316 30.3411ZM81.1767 30.9947L81.1683 29.8509L75.1684 29.8948L75.1768 31.0387L81.1767 30.9947ZM81.1807 32.2609L81.1767 31.0072L75.1768 31.0261L75.1807 32.2798L81.1807 32.2609ZM81.2051 33.5138L81.1801 32.2128L75.1812 32.328L75.2062 33.629L81.2051 33.5138ZM81.1853 34.7883C81.195 34.4114 81.2061 33.9897 81.2057 33.5684L75.2057 33.5744C75.206 33.9017 75.1974 34.2422 75.1873 34.6338L81.1853 34.7883ZM81.4293 37.9563C81.1621 37.264 81.1444 36.3794 81.1853 34.7883L75.1873 34.6338C75.1528 35.9732 75.0573 38.1099 75.8316 40.1165L81.4293 37.9563ZM81.3462 37.7148C81.3917 37.7609 81.4032 37.7825 81.3672 37.7325C81.3485 37.7065 81.3223 37.6687 81.2832 37.6102C81.2433 37.5504 81.1995 37.4835 81.1411 37.3942L76.1198 40.6785C76.2987 40.9521 76.6258 41.4743 77.0792 41.933L81.3462 37.7148ZM83.6216 38.5443C82.457 38.1159 81.8397 37.8873 81.4418 37.7119C81.0879 37.5559 81.1943 37.5611 81.3462 37.7148L77.0792 41.933C77.6898 42.5506 78.3636 42.9121 79.0221 43.2023C79.6365 43.4731 80.4766 43.7805 81.5505 44.1755L83.6216 38.5443ZM88.7663 40.4821C87.0415 39.7889 85.3108 39.1513 83.6007 38.5366L81.5714 44.1831C83.2562 44.7886 84.9061 45.3971 86.5288 46.0493L88.7663 40.4821ZM93.8776 42.4993C92.1742 41.8449 90.4746 41.169 88.7666 40.4823L86.5284 46.0492C88.2482 46.7406 89.9805 47.4297 91.7258 48.1002L93.8776 42.4993ZM95.0559 42.9502L93.8738 42.4979L91.7296 48.1017L92.9116 48.554L95.0559 42.9502ZM101.603 44.3651C99.4555 44.5744 97.7649 44.0228 95.0883 42.9628L92.8792 48.5413C95.5981 49.618 98.4768 50.6983 102.185 50.3368L101.603 44.3651ZM99.8206 45.0799L99.4341 45.6334L104.353 49.0685L104.74 48.515L99.8206 45.0799ZM99.4973 45.9185C99.5013 45.8026 99.5144 45.7023 99.5291 45.6235C99.5429 45.5494 99.5567 45.5022 99.5588 45.4951C99.5603 45.4899 99.5559 45.5053 99.5373 45.5587C99.5184 45.613 99.495 45.6779 99.4591 45.7773L105.102 47.8176C105.173 47.6187 105.467 46.9061 105.494 46.1236L99.4973 45.9185ZM99.4257 46.0201C99.4444 46.079 99.4602 46.1292 99.4747 46.1756C99.4892 46.2216 99.5008 46.2593 99.5105 46.2914C99.5202 46.3236 99.5269 46.3464 99.5315 46.3626C99.536 46.3787 99.5374 46.3845 99.5369 46.3824C99.5363 46.38 99.5236 46.3292 99.5127 46.2471C99.5071 46.2047 99.502 46.1545 99.499 46.0976C99.4959 46.0404 99.4952 45.9805 99.4973 45.9185L105.494 46.1235C105.523 45.2655 105.225 44.4593 105.147 44.2125L99.4257 46.0201ZM99.0895 45.4382L99.607 46.4657L104.966 43.7668L104.448 42.7394L99.0895 45.4382ZM98.4986 44.2375L99.077 45.4131L104.461 42.7645L103.882 41.5889L98.4986 44.2375ZM97.1859 41.5416C97.6161 42.4555 98.0575 43.3612 98.5108 44.2618L103.87 41.5645C103.44 40.7094 103.022 39.8512 102.615 38.9866L97.1859 41.5416ZM95.8332 38.6926C96.2875 39.6391 96.7378 40.5883 97.1853 41.5403L102.615 38.9879C102.162 38.0231 101.704 37.059 101.242 36.096L95.8332 38.6926ZM95.1284 37.2245C95.3633 37.7145 95.5984 38.2043 95.8338 38.694L101.242 36.0946C101.007 35.6068 100.773 35.1188 100.539 34.6307L95.1284 37.2245ZM94.0697 35.0005C94.4216 35.7327 94.7701 36.4681 95.1224 37.2119L100.545 34.6433C100.193 33.9014 99.838 33.1514 99.4778 32.4019L94.0697 35.0005ZM93.7304 34.2959L94.0709 35.0029L99.4767 32.3995L99.1361 31.6925L93.7304 34.2959ZM91.299 30.5626C92.3225 31.6449 93.0053 32.7526 93.7179 34.2696L99.1487 31.7188C98.2615 29.83 97.2532 28.1266 95.6586 26.4402L91.299 30.5626ZM89.3997 29.9585C90.0375 29.9732 90.3381 30.0502 90.5344 30.1269C90.7417 30.208 91.031 30.3664 91.5577 30.8056L95.3999 26.1972C94.6075 25.5365 93.7552 24.9438 92.719 24.5388C91.6718 24.1293 90.6268 23.9852 89.5379 23.9601L89.3997 29.9585ZM88.7529 29.9643L89.4894 29.9592L89.4482 23.9594L88.7117 23.9644L88.7529 29.9643ZM87.1464 29.9545C87.6671 29.9568 88.1875 29.96 88.7078 29.9642L88.7568 23.9644C88.2287 23.9601 87.7008 23.9568 87.173 23.9545L87.1464 29.9545ZM84.6601 29.9538C85.5155 29.9658 86.3626 29.9609 87.1837 29.9544L87.1357 23.9546C86.3177 23.9611 85.5281 23.9654 84.7444 23.9544L84.6601 29.9538ZM83.0861 29.9408C83.6087 29.9412 84.1319 29.9455 84.6555 29.9537L84.7491 23.9544C84.1966 23.9458 83.6434 23.9412 83.0898 23.9408L83.0861 29.9408Z" fill="url(#paint1_linear_214_730)" mask="url(#path-2-inside-1_214_730)"/>
<path d="M16.0611 0.564453C17.7405 0.750323 18.9624 1.53167 20.3738 2.39471C20.607 2.53204 20.8402 2.66937 21.0805 2.81086C21.6643 3.16344 22.2306 3.54481 22.7931 3.93044C22.7931 4.1526 22.7931 4.37475 22.7931 4.60364C22.2838 4.98905 22.2838 4.98905 21.5769 5.40569C21.1965 5.63023 21.1965 5.63023 20.8083 5.85931C20.54 6.01421 20.2716 6.16911 19.9951 6.32871C19.5984 6.56497 19.5984 6.56497 19.1937 6.806C17.2006 7.96963 17.2006 7.96963 16.0611 7.96963C16.0611 7.30316 16.0611 6.6367 16.0611 5.95004C12.4253 6.61629 9.08749 7.97481 6.75206 10.9688C4.55983 14.3782 3.5946 17.3866 3.94356 21.4336C4.7512 24.9933 6.39889 28.262 9.32914 30.5218C13.1531 32.7239 16.6439 33.4216 21.026 32.6886C24.691 31.6947 27.7227 28.8466 29.6303 25.6411C30.3942 23.9921 30.5983 22.146 30.8587 20.3613C31.1421 18.4701 31.1421 18.4701 31.8813 17.731C32.7228 17.6468 32.7228 17.6468 33.5643 17.731C34.4472 18.6139 34.3379 19.0256 34.3426 20.2555C34.2527 24.695 32.2958 28.6213 29.2805 31.8445C25.5459 35.2454 21.0599 36.767 16.0651 36.6647C11.0897 36.2517 7.27132 33.7485 3.94356 30.1852C3.12349 29.1141 2.5017 28.0358 1.92397 26.8192C1.717 26.4365 1.717 26.4365 1.50585 26.046C-0.118681 22.5281 -0.104156 17.2673 1.10351 13.6077C3.33914 8.71428 7.01769 5.16983 12.0219 3.25724C13.3647 2.92781 14.6847 2.70758 16.0611 2.58405C16.0611 1.91758 16.0611 1.25111 16.0611 0.564453Z" fill="url(#paint2_linear_214_730)"/>
<path fill-rule="evenodd" clip-rule="evenodd" d="M42.429 63.3329C42.1548 61.3082 40.7387 59.8087 39.2865 58.4588C36.7764 56.8129 33.9493 56.5562 31.1805 57.7278C29.1959 58.9404 27.8243 60.9738 27.169 63.1712C26.8755 65.9115 27.5436 67.7619 29.2228 69.9242C30.6527 71.3836 32.5612 72.3306 34.6162 72.4277C36.9296 72.1292 38.7259 71.4368 40.4502 69.8309C42.1334 67.8834 42.4653 65.8462 42.429 63.3329ZM38.6132 63.1718C37.996 61.9699 37.1463 61.3604 35.9204 60.8156C33.5062 60.5556 32.1544 61.0525 30.8714 63.1718C30.6222 64.916 30.9139 66.08 31.8812 67.5476C32.8134 68.3034 33.3796 68.5381 34.574 68.6625C36.1865 68.4946 36.9562 68.2367 38.0451 67.0006C38.7781 65.5348 38.7965 64.7954 38.6132 63.1718Z" fill="url(#paint3_linear_214_730)"/>
<path fill-rule="evenodd" clip-rule="evenodd" d="M97.8545 62.1616C97.1004 60.6534 96.1338 59.3126 94.8212 58.2447C91.701 56.2897 88.2066 56.634 85.3912 58.8706C83.9099 60.2052 83.1344 61.315 82.9193 63.3345C82.8606 66.6653 83.4756 68.211 85.737 70.5766C86.2992 71.1248 86.6565 71.4731 87.0805 71.6923C87.8195 72.0744 88.7614 72.0641 91.3448 72.0361C93.6621 71.803 95.1329 70.6897 96.6738 69.0238C98.2444 66.9519 98.0844 64.6638 97.8545 62.1616ZM93.4789 61.8251C92.3936 60.9372 91.5643 60.7464 90.197 60.7311C90.0702 60.7337 89.9499 60.7321 89.8348 60.7307C89.29 60.7237 88.8635 60.7183 88.4299 61.1519L87.5673 61.8041C87.1518 62.3262 86.9079 62.6325 86.7714 62.9809C86.5776 63.4757 86.6002 64.0553 86.6548 65.458C86.8178 66.7731 87.5024 67.379 88.514 68.2034C89.5053 68.7986 90.3426 68.7018 91.4593 68.5571C92.7727 68.1443 93.4643 67.3798 94.152 66.2009C94.3717 64.5237 94.431 63.2534 93.4789 61.8251Z" fill="url(#paint4_linear_214_730)"/>
<path d="M17.7441 14.0278C19.8545 14.0278 21.965 14.0278 24.1394 14.0278C24.1394 14.5832 24.1394 15.1386 24.1394 15.7108C22.6954 15.7108 21.2514 15.7108 19.7637 15.7108C19.7637 16.4884 19.7637 17.2659 19.7637 18.067C20.0969 17.8449 20.4301 17.6227 20.7735 17.3938C22.0853 17.2227 22.6266 17.2829 23.7397 18.0249C24.7336 18.9904 24.8696 19.5184 24.8968 20.865C24.8771 22.2229 24.7272 23.0739 23.8028 24.1258C22.4601 24.9314 20.9555 25.0522 19.4271 24.799C18.4039 24.1895 17.8773 23.8215 17.4706 22.6953C17.4393 22.4037 17.4393 22.4037 17.4075 22.1062C17.9629 21.884 18.5182 21.6619 19.0905 21.433C19.3126 21.7662 19.5348 22.0995 19.7637 22.4428C20.9559 22.555 20.9559 22.555 22.1199 22.4428C22.5682 22.0686 22.5682 22.0686 22.5196 21.1174C22.5685 20.0499 22.5685 20.0499 21.7833 19.4134C20.6702 19.511 20.6702 19.511 19.7637 20.0866C19.0972 20.0866 18.4307 20.0866 17.7441 20.0866C17.7441 18.0872 17.7441 16.0878 17.7441 14.0278Z" fill="url(#paint5_linear_214_730)"/>
<path d="M14.0415 14.0278C14.0415 16.9159 14.0415 19.8039 14.0415 22.7794C14.819 22.7794 15.5966 22.7794 16.3977 22.7794C16.3977 23.3348 16.3977 23.8902 16.3977 24.4624C14.065 24.4624 11.7324 24.4624 9.3291 24.4624C9.3291 23.907 9.3291 23.3516 9.3291 22.7794C10.2177 22.7794 11.1063 22.7794 12.0219 22.7794C12.0219 20.6689 12.0219 18.5585 12.0219 16.384C11.2443 16.4951 10.4668 16.6062 9.6657 16.7206C9.6657 16.1652 9.6657 15.6098 9.6657 15.0376C11.3927 14.2087 11.9966 14.0278 14.0415 14.0278Z" fill="url(#paint6_linear_214_730)"/>
<path d="M25.4859 5.27612C26.4212 5.34807 27.018 5.51209 27.8 6.03347C28.1787 6.62252 28.1787 6.62252 28.1156 7.48505C27.8421 8.30551 27.8421 8.30551 27.1689 8.97871C26.2336 8.90676 25.6369 8.74274 24.8548 8.22136C24.4761 7.63231 24.4761 7.63231 24.5392 6.76978C24.8127 5.94932 24.8127 5.94932 25.4859 5.27612Z" fill="url(#paint7_linear_214_730)"/>
<path d="M30.8714 13.0181C31.6588 13.1148 32.4446 13.2265 33.2276 13.3547C33.6755 15.5129 33.6755 15.5129 33.1855 16.3841C32.5544 16.7207 32.5544 16.7207 31.6918 16.6786C30.8714 16.3841 30.8714 16.3841 30.1982 15.3743C30.3852 13.5043 30.3852 13.5043 30.8714 13.0181Z" fill="url(#paint8_linear_214_730)"/>
<path d="M28.8519 8.64209C29.7752 8.71312 30.3827 8.88232 31.166 9.3784C31.5447 9.98849 31.5447 9.98849 31.4395 11.0614C31.3631 11.3738 31.2867 11.6862 31.2081 12.0081C29.3821 12.4544 29.3821 12.4544 28.5573 11.987C28.0182 11.0585 28.0666 10.369 28.1787 9.31529C28.4008 9.09313 28.623 8.87098 28.8519 8.64209Z" fill="url(#paint9_linear_214_730)"/>
<defs>
<linearGradient id="paint0_linear_214_730" x1="17.7601" y1="66.6136" x2="74.9639" y2="63.4679" gradientUnits="userSpaceOnUse">
<stop offset="0.22" stop-color="#0B271B"/>
<stop offset="0.54526" stop-color="#204D36"/>
<stop offset="0.846622" stop-color="#0B271B"/>
</linearGradient>
<linearGradient id="paint1_linear_214_730" x1="18.2601" y1="84.0564" x2="110.179" y2="76.9664" gradientUnits="userSpaceOnUse">
<stop offset="0.22" stop-color="#0B271B"/>
<stop offset="0.54526" stop-color="#204D36"/>
<stop offset="0.846622" stop-color="#0B271B"/>
</linearGradient>
<linearGradient id="paint2_linear_214_730" x1="1.63209" y1="53.7374" x2="35.3262" y2="52.6585" gradientUnits="userSpaceOnUse">
<stop offset="0.22" stop-color="#0B271B"/>
<stop offset="0.54526" stop-color="#204D36"/>
<stop offset="0.846622" stop-color="#0B271B"/>
</linearGradient>
<linearGradient id="paint3_linear_214_730" x1="27.7287" y1="79.7187" x2="42.871" y2="79.2086" gradientUnits="userSpaceOnUse">
<stop offset="0.22" stop-color="#0B271B"/>
<stop offset="0.54526" stop-color="#204D36"/>
<stop offset="0.846622" stop-color="#0B271B"/>
</linearGradient>
<linearGradient id="paint4_linear_214_730" x1="83.5322" y1="79.1783" x2="98.4318" y2="78.6732" gradientUnits="userSpaceOnUse">
<stop offset="0.22" stop-color="#0B271B"/>
<stop offset="0.54526" stop-color="#204D36"/>
<stop offset="0.846622" stop-color="#0B271B"/>
</linearGradient>
<linearGradient id="paint5_linear_214_730" x1="17.7137" y1="30.0654" x2="25.1159" y2="29.8928" gradientUnits="userSpaceOnUse">
<stop offset="0.22" stop-color="#0B271B"/>
<stop offset="0.54526" stop-color="#204D36"/>
<stop offset="0.846622" stop-color="#0B271B"/>
</linearGradient>
<linearGradient id="paint6_linear_214_730" x1="9.6181" y1="29.3951" x2="16.6046" y2="29.2347" gradientUnits="userSpaceOnUse">
<stop offset="0.22" stop-color="#0B271B"/>
<stop offset="0.54526" stop-color="#204D36"/>
<stop offset="0.846622" stop-color="#0B271B"/>
</linearGradient>
<linearGradient id="paint7_linear_214_730" x1="24.6567" y1="10.729" x2="28.2513" y2="10.6093" gradientUnits="userSpaceOnUse">
<stop offset="0.22" stop-color="#0B271B"/>
<stop offset="0.54526" stop-color="#204D36"/>
<stop offset="0.846622" stop-color="#0B271B"/>
</linearGradient>
<linearGradient id="paint8_linear_214_730" x1="30.3356" y1="18.4371" x2="33.6554" y2="18.3344" gradientUnits="userSpaceOnUse">
<stop offset="0.22" stop-color="#0B271B"/>
<stop offset="0.54526" stop-color="#204D36"/>
<stop offset="0.846622" stop-color="#0B271B"/>
</linearGradient>
<linearGradient id="paint9_linear_214_730" x1="28.2455" y1="14.0885" x2="31.5974" y2="13.9842" gradientUnits="userSpaceOnUse">
<stop offset="0.22" stop-color="#0B271B"/>
<stop offset="0.54526" stop-color="#204D36"/>
<stop offset="0.846622" stop-color="#0B271B"/>
</linearGradient>
</defs>
</svg>
